<svg width="391" height="376" viewBox="0 0 391 376" fill="none" xmlns="http://www.w3.org/2000/svg">
<g filter="url(#filter0_dd_0_233)">
<rect x="33" y="9" width="325" height="310" rx="10" fill="black"/>
<path d="M77 259.5H339" stroke="#E4E4E4" stroke-opacity="0.2" stroke-linecap="square"/>
<path d="M77 222.5H339" stroke="#E4E4E4" stroke-opacity="0.2" stroke-linecap="square"/>
<path d="M77 185.5H339" stroke="#E4E4E4" stroke-opacity="0.2" stroke-linecap="square"/>
<path d="M77 148.5H339" stroke="#E4E4E4" stroke-opacity="0.2" stroke-linecap="square"/>
<path d="M77 111.5H339" stroke="#E4E4E4" stroke-opacity="0.2" stroke-linecap="square"/>
<path d="M276.634 287V279.25H275.511L272.858 285.663H272.772L270.119 279.25H268.996V287H269.898V281.081H269.963L272.407 286.946H273.223L275.667 281.081H275.731V287H276.634ZM280.275 286.291C279.604 286.291 279.104 285.947 279.104 285.356C279.104 284.776 279.491 284.47 280.372 284.411L281.93 284.309V284.841C281.93 285.668 281.226 286.291 280.275 286.291ZM280.104 287.102C280.877 287.102 281.511 286.764 281.887 286.146H281.973V287H282.854V283.036C282.854 281.833 282.064 281.108 280.651 281.108C279.416 281.108 278.503 281.72 278.379 282.649H279.314C279.443 282.193 279.926 281.93 280.619 281.93C281.484 281.93 281.93 282.322 281.93 283.036V283.562L280.259 283.665C278.911 283.745 278.148 284.341 278.148 285.378C278.148 286.436 278.981 287.102 280.104 287.102ZM284.841 289.095C285.867 289.095 286.329 288.697 286.823 287.354L289.084 281.21H288.101L286.517 285.974H286.431L284.841 281.21H283.842L285.985 287.005L285.877 287.349C285.636 288.047 285.346 288.3 284.814 288.3C284.685 288.3 284.54 288.294 284.427 288.273V289.062C284.556 289.084 284.717 289.095 284.841 289.095Z" fill="#999999"/>
<path d="M226.42 287H227.436L224.578 279.25H223.622L220.765 287H221.78L222.559 284.782H225.642L226.42 287ZM224.057 280.501H224.143L225.357 283.96H222.843L224.057 280.501ZM231.496 281.108C230.707 281.108 230.014 281.511 229.643 282.177H229.557V281.21H228.676V288.934H229.6V286.13H229.686C230.003 286.742 230.669 287.102 231.496 287.102C232.968 287.102 233.929 285.915 233.929 284.105C233.929 282.284 232.973 281.108 231.496 281.108ZM231.276 286.27C230.234 286.27 229.573 285.432 229.573 284.105C229.573 282.773 230.234 281.94 231.281 281.94C232.339 281.94 232.973 282.751 232.973 284.105C232.973 285.458 232.339 286.27 231.276 286.27ZM235.379 287H236.303V283.412C236.303 282.596 236.942 282.005 237.823 282.005C238.006 282.005 238.339 282.037 238.414 282.059V281.135C238.296 281.119 238.103 281.108 237.952 281.108C237.184 281.108 236.518 281.505 236.346 282.069H236.26V281.21H235.379V287Z" fill="#999999"/>
<path d="M180.054 287V279.25H178.931L176.278 285.663H176.192L173.539 279.25H172.416V287H173.318V281.081H173.383L175.827 286.946H176.643L179.087 281.081H179.151V287H180.054ZM183.695 286.291C183.024 286.291 182.524 285.947 182.524 285.356C182.524 284.776 182.911 284.47 183.792 284.411L185.35 284.309V284.841C185.35 285.668 184.646 286.291 183.695 286.291ZM183.523 287.102C184.297 287.102 184.931 286.764 185.307 286.146H185.393V287H186.273V283.036C186.273 281.833 185.484 281.108 184.071 281.108C182.836 281.108 181.923 281.72 181.799 282.649H182.734C182.863 282.193 183.346 281.93 184.039 281.93C184.904 281.93 185.35 282.322 185.35 283.036V283.562L183.679 283.665C182.331 283.745 181.568 284.341 181.568 285.378C181.568 286.436 182.401 287.102 183.523 287.102ZM187.981 287H188.905V283.412C188.905 282.596 189.544 282.005 190.425 282.005C190.608 282.005 190.941 282.037 191.016 282.059V281.135C190.898 281.119 190.705 281.108 190.554 281.108C189.786 281.108 189.12 281.505 188.948 282.069H188.862V281.21H187.981V287Z" fill="#999999"/>
<path d="M124.969 287V283.643H128.401V282.784H124.969V280.12H128.708V279.25H124.002V287H124.969ZM132.489 281.924C133.407 281.924 134.02 282.601 134.041 283.627H130.851C130.92 282.601 131.565 281.924 132.489 281.924ZM134.014 285.501C133.772 286.012 133.268 286.286 132.521 286.286C131.538 286.286 130.899 285.561 130.851 284.417V284.374H135.013V284.019C135.013 282.22 134.062 281.108 132.5 281.108C130.91 281.108 129.889 282.29 129.889 284.11C129.889 285.942 130.894 287.102 132.5 287.102C133.767 287.102 134.659 286.495 134.938 285.501H134.014ZM139.342 287.102C140.809 287.102 141.77 285.915 141.77 284.105C141.77 282.284 140.814 281.108 139.342 281.108C138.547 281.108 137.844 281.5 137.527 282.123H137.441V278.911H136.517V287H137.398V286.076H137.484C137.849 286.721 138.537 287.102 139.342 287.102ZM139.127 281.94C140.186 281.94 140.814 282.751 140.814 284.105C140.814 285.458 140.186 286.27 139.127 286.27C138.075 286.27 137.419 285.442 137.419 284.105C137.419 282.768 138.075 281.94 139.127 281.94Z" fill="#999999"/>
<path d="M318.989 285.19C318.989 286.377 319.902 287.183 321.202 287.183C322.604 287.183 323.458 286.318 323.458 284.841V279.25H322.491V284.835C322.491 285.786 322.024 286.291 321.197 286.291C320.466 286.291 319.972 285.84 319.951 285.19H318.989ZM330 281.21H329.076V284.637C329.076 285.652 328.518 286.259 327.497 286.259C326.573 286.259 326.187 285.775 326.187 284.733V281.21H325.263V284.959C325.263 286.329 325.939 287.102 327.239 287.102C328.125 287.102 328.743 286.737 329.033 286.092H329.119V287H330V281.21ZM331.74 287H332.664V283.573C332.664 282.558 333.26 281.94 334.184 281.94C335.108 281.94 335.548 282.435 335.548 283.477V287H336.472V283.251C336.472 281.876 335.747 281.108 334.447 281.108C333.561 281.108 332.997 281.484 332.707 282.123H332.621V281.21H331.74V287Z" fill="#999999"/>
<path d="M75.7559 285.19C75.7559 286.377 76.6689 287.183 77.9688 287.183C79.3706 287.183 80.2246 286.318 80.2246 284.841V279.25H79.2578V284.835C79.2578 285.786 78.7905 286.291 77.9634 286.291C77.2329 286.291 76.7388 285.84 76.7173 285.19H75.7559ZM83.8662 286.291C83.1948 286.291 82.6953 285.947 82.6953 285.356C82.6953 284.776 83.082 284.47 83.9629 284.411L85.5205 284.309V284.841C85.5205 285.668 84.8169 286.291 83.8662 286.291ZM83.6943 287.102C84.4678 287.102 85.1016 286.764 85.4775 286.146H85.5635V287H86.4443V283.036C86.4443 281.833 85.6548 281.108 84.2422 281.108C83.0068 281.108 82.0938 281.72 81.9702 282.649H82.9048C83.0337 282.193 83.5171 281.93 84.21 281.93C85.0747 281.93 85.5205 282.322 85.5205 283.036V283.562L83.8501 283.665C82.502 283.745 81.7393 284.341 81.7393 285.378C81.7393 286.436 82.5718 287.102 83.6943 287.102ZM88.1523 287H89.0762V283.573C89.0762 282.558 89.6724 281.94 90.5962 281.94C91.52 281.94 91.9604 282.435 91.9604 283.477V287H92.8843V283.251C92.8843 281.876 92.1592 281.108 90.8594 281.108C89.9731 281.108 89.4092 281.484 89.1191 282.123H89.0332V281.21H88.1523V287Z" fill="#999999"/>
<path d="M66.541 262.183C68.2812 262.183 69.2803 260.711 69.2803 258.138C69.2803 255.571 68.2651 254.067 66.541 254.067C64.8062 254.067 63.791 255.565 63.791 258.122C63.791 260.7 64.7954 262.183 66.541 262.183ZM66.541 261.339C65.397 261.339 64.7632 260.195 64.7632 258.122C64.7632 256.076 65.4077 254.916 66.541 254.916C67.6743 254.916 68.3081 256.065 68.3081 258.122C68.3081 260.201 67.6851 261.339 66.541 261.339Z" fill="#999999"/>
<path d="M50.3096 219.43V219.436H51.2441V219.43C51.2441 218.517 51.8564 217.91 52.7642 217.91C53.6182 217.91 54.2788 218.506 54.2788 219.28C54.2788 219.903 54.0371 220.322 53.0381 221.407L50.3579 224.334V225H55.3745V224.13H51.7437V224.044L53.6074 222.041C54.8804 220.676 55.2456 220.048 55.2456 219.242C55.2456 218.012 54.1821 217.067 52.791 217.067C51.3516 217.067 50.3096 218.055 50.3096 219.43ZM59.6123 225.183C61.3525 225.183 62.3516 223.711 62.3516 221.138C62.3516 218.571 61.3364 217.067 59.6123 217.067C57.8774 217.067 56.8623 218.565 56.8623 221.122C56.8623 223.7 57.8667 225.183 59.6123 225.183ZM59.6123 224.339C58.4683 224.339 57.8345 223.195 57.8345 221.122C57.8345 219.076 58.479 217.916 59.6123 217.916C60.7456 217.916 61.3794 219.065 61.3794 221.122C61.3794 223.201 60.7563 224.339 59.6123 224.339ZM66.541 225.183C68.2812 225.183 69.2803 223.711 69.2803 221.138C69.2803 218.571 68.2651 217.067 66.541 217.067C64.8062 217.067 63.791 218.565 63.791 221.122C63.791 223.7 64.7954 225.183 66.541 225.183ZM66.541 224.339C65.397 224.339 64.7632 223.195 64.7632 221.122C64.7632 219.076 65.4077 217.916 66.541 217.916C67.6743 217.916 68.3081 219.065 68.3081 221.122C68.3081 223.201 67.6851 224.339 66.541 224.339Z" fill="#999999"/>
<path d="M53.4678 188H54.4131V186.394H55.5142V185.529H54.4131V180.25H53.0112C51.6147 182.339 50.3848 184.283 49.6919 185.513V186.394H53.4678V188ZM50.6802 185.47C51.604 183.902 52.6138 182.301 53.4087 181.146H53.4731V185.535H50.6802V185.47ZM59.6123 188.183C61.3525 188.183 62.3516 186.711 62.3516 184.138C62.3516 181.571 61.3364 180.067 59.6123 180.067C57.8774 180.067 56.8623 181.565 56.8623 184.122C56.8623 186.7 57.8667 188.183 59.6123 188.183ZM59.6123 187.339C58.4683 187.339 57.8345 186.195 57.8345 184.122C57.8345 182.076 58.479 180.916 59.6123 180.916C60.7456 180.916 61.3794 182.065 61.3794 184.122C61.3794 186.201 60.7563 187.339 59.6123 187.339ZM66.541 188.183C68.2812 188.183 69.2803 186.711 69.2803 184.138C69.2803 181.571 68.2651 180.067 66.541 180.067C64.8062 180.067 63.791 181.565 63.791 184.122C63.791 186.7 64.7954 188.183 66.541 188.183ZM66.541 187.339C65.397 187.339 64.7632 186.195 64.7632 184.122C64.7632 182.076 65.4077 180.916 66.541 180.916C67.6743 180.916 68.3081 182.065 68.3081 184.122C68.3081 186.201 67.6851 187.339 66.541 187.339Z" fill="#999999"/>
<path d="M52.7319 151.177C54.3218 151.177 55.4497 150.065 55.4497 148.508C55.4497 147.004 54.3809 145.914 52.9038 145.914C51.98 145.914 51.2227 146.354 50.8413 147.106H50.7554C50.8091 145.043 51.5234 143.926 52.7856 143.926C53.5483 143.926 54.1338 144.367 54.3433 145.092H55.3369C55.0898 143.846 54.1123 143.067 52.7964 143.067C50.9004 143.067 49.8154 144.592 49.8154 147.256C49.8154 148.11 49.939 148.825 50.1914 149.416C50.6748 150.554 51.5664 151.177 52.7319 151.177ZM52.7212 150.329C51.7275 150.329 50.9702 149.544 50.9702 148.508C50.9702 147.482 51.7061 146.751 52.7319 146.751C53.7578 146.751 54.4722 147.482 54.4722 148.54C54.4722 149.555 53.7148 150.329 52.7212 150.329ZM59.6123 151.183C61.3525 151.183 62.3516 149.711 62.3516 147.138C62.3516 144.571 61.3364 143.067 59.6123 143.067C57.8774 143.067 56.8623 144.565 56.8623 147.122C56.8623 149.7 57.8667 151.183 59.6123 151.183ZM59.6123 150.339C58.4683 150.339 57.8345 149.195 57.8345 147.122C57.8345 145.076 58.479 143.916 59.6123 143.916C60.7456 143.916 61.3794 145.065 61.3794 147.122C61.3794 149.201 60.7563 150.339 59.6123 150.339ZM66.541 151.183C68.2812 151.183 69.2803 149.711 69.2803 147.138C69.2803 144.571 68.2651 143.067 66.541 143.067C64.8062 143.067 63.791 144.565 63.791 147.122C63.791 149.7 64.7954 151.183 66.541 151.183ZM66.541 150.339C65.397 150.339 64.7632 149.195 64.7632 147.122C64.7632 145.076 65.4077 143.916 66.541 143.916C67.6743 143.916 68.3081 145.065 68.3081 147.122C68.3081 149.201 67.6851 150.339 66.541 150.339Z" fill="#999999"/>
<path d="M52.6299 114.183C54.2734 114.183 55.4229 113.253 55.4229 111.927C55.4229 110.917 54.7837 110.133 53.8115 109.95V109.864C54.6118 109.644 55.106 108.983 55.106 108.135C55.106 106.926 54.0801 106.067 52.6299 106.067C51.1797 106.067 50.1538 106.926 50.1538 108.135C50.1538 108.978 50.6587 109.649 51.4482 109.864V109.95C50.4761 110.133 49.8369 110.917 49.8369 111.927C49.8369 113.253 50.9863 114.183 52.6299 114.183ZM52.6299 113.355C51.5557 113.355 50.8145 112.743 50.8145 111.857C50.8145 110.971 51.5557 110.358 52.6299 110.358C53.7041 110.358 54.4453 110.971 54.4453 111.857C54.4453 112.743 53.7041 113.355 52.6299 113.355ZM52.6299 109.542C51.7168 109.542 51.1045 109.016 51.1045 108.226C51.1045 107.426 51.7114 106.894 52.6299 106.894C53.5483 106.894 54.1553 107.426 54.1553 108.226C54.1553 109.016 53.543 109.542 52.6299 109.542ZM59.6123 114.183C61.3525 114.183 62.3516 112.711 62.3516 110.138C62.3516 107.571 61.3364 106.067 59.6123 106.067C57.8774 106.067 56.8623 107.565 56.8623 110.122C56.8623 112.7 57.8667 114.183 59.6123 114.183ZM59.6123 113.339C58.4683 113.339 57.8345 112.195 57.8345 110.122C57.8345 108.076 58.479 106.916 59.6123 106.916C60.7456 106.916 61.3794 108.065 61.3794 110.122C61.3794 112.201 60.7563 113.339 59.6123 113.339ZM66.541 114.183C68.2812 114.183 69.2803 112.711 69.2803 110.138C69.2803 107.571 68.2651 106.067 66.541 106.067C64.8062 106.067 63.791 107.565 63.791 110.122C63.791 112.7 64.7954 114.183 66.541 114.183ZM66.541 113.339C65.397 113.339 64.7632 112.195 64.7632 110.122C64.7632 108.076 65.4077 106.916 66.541 106.916C67.6743 106.916 68.3081 108.065 68.3081 110.122C68.3081 112.201 67.6851 113.339 66.541 113.339Z" fill="#999999"/>
<rect x="134" y="67.2283" width="8" height="8" rx="4" fill="#9BA6FA"/>
<path d="M148.98 66.8283H150.12L148.824 74.2083H152.676L152.496 75.2283H147.504L148.98 66.8283ZM156.073 75.3723C155.545 75.3723 155.077 75.2603 154.669 75.0363C154.269 74.8043 153.953 74.4763 153.721 74.0523C153.497 73.6203 153.385 73.1123 153.385 72.5283C153.385 71.8643 153.521 71.2523 153.793 70.6923C154.073 70.1323 154.465 69.6843 154.969 69.3483C155.481 69.0123 156.077 68.8443 156.757 68.8443C157.221 68.8443 157.613 68.9323 157.933 69.1083C158.261 69.2843 158.513 69.5123 158.689 69.7923C158.865 70.0723 158.953 70.3723 158.953 70.6923C158.953 71.1323 158.849 71.4963 158.641 71.7843C158.433 72.0723 158.165 72.2963 157.837 72.4563C157.509 72.6083 157.153 72.7163 156.769 72.7803C156.393 72.8443 156.033 72.8763 155.689 72.8763C155.473 72.8763 155.257 72.8683 155.041 72.8523C154.833 72.8283 154.649 72.8043 154.489 72.7803C154.553 73.3083 154.741 73.7123 155.053 73.9923C155.365 74.2723 155.765 74.4123 156.253 74.4123C156.653 74.4123 157.009 74.3603 157.321 74.2563C157.633 74.1523 157.897 74.0483 158.113 73.9443L158.209 74.9043C157.969 75.0163 157.665 75.1243 157.297 75.2283C156.929 75.3243 156.521 75.3723 156.073 75.3723ZM156.673 69.7563C156.297 69.7563 155.957 69.8523 155.653 70.0443C155.349 70.2283 155.097 70.4843 154.897 70.8123C154.705 71.1323 154.577 71.5003 154.513 71.9163C154.697 71.9483 154.881 71.9763 155.065 72.0003C155.257 72.0163 155.465 72.0243 155.689 72.0243C156.361 72.0243 156.893 71.9323 157.285 71.7483C157.677 71.5563 157.873 71.2323 157.873 70.7763C157.873 70.4963 157.761 70.2563 157.537 70.0563C157.321 69.8563 157.033 69.7563 156.673 69.7563ZM163.556 68.8443C164.028 68.8443 164.444 68.8923 164.804 68.9883C165.164 69.0843 165.46 69.1803 165.692 69.2763L164.648 75.3003C164.552 75.8523 164.404 76.3043 164.204 76.6563C164.012 77.0083 163.784 77.2803 163.52 77.4723C163.264 77.6723 162.992 77.8123 162.704 77.8923C162.416 77.9723 162.132 78.0123 161.852 78.0123C161.308 78.0123 160.844 77.9003 160.46 77.6763C160.084 77.4523 159.776 77.1923 159.536 76.8963L160.376 76.2723C160.768 76.8083 161.284 77.0763 161.924 77.0763C162.324 77.0763 162.676 76.9283 162.98 76.6323C163.284 76.3363 163.5 75.8323 163.628 75.1203L163.832 73.9443C163.608 74.3043 163.328 74.6083 162.992 74.8563C162.664 75.1043 162.292 75.2283 161.876 75.2283C161.492 75.2283 161.124 75.1323 160.772 74.9403C160.428 74.7483 160.144 74.4683 159.92 74.1003C159.704 73.7323 159.596 73.2803 159.596 72.7443C159.596 71.9683 159.768 71.2883 160.112 70.7043C160.456 70.1203 160.928 69.6643 161.528 69.3363C162.128 69.0083 162.804 68.8443 163.556 68.8443ZM160.7 72.6243C160.7 72.9843 160.768 73.2883 160.904 73.5363C161.048 73.7763 161.232 73.9603 161.456 74.0883C161.68 74.2083 161.916 74.2683 162.164 74.2683C162.468 74.2683 162.756 74.1603 163.028 73.9443C163.3 73.7283 163.536 73.4243 163.736 73.0323C163.944 72.6403 164.096 72.1803 164.192 71.6523L164.504 69.9123C164.352 69.8643 164.192 69.8283 164.024 69.8043C163.856 69.7723 163.66 69.7563 163.436 69.7563C162.9 69.7563 162.424 69.8843 162.008 70.1403C161.6 70.3883 161.28 70.7283 161.048 71.1603C160.816 71.5923 160.7 72.0803 160.7 72.6243ZM169.21 75.3723C168.682 75.3723 168.214 75.2603 167.806 75.0363C167.406 74.8043 167.09 74.4763 166.858 74.0523C166.634 73.6203 166.522 73.1123 166.522 72.5283C166.522 71.8643 166.658 71.2523 166.93 70.6923C167.21 70.1323 167.602 69.6843 168.106 69.3483C168.618 69.0123 169.214 68.8443 169.894 68.8443C170.358 68.8443 170.75 68.9323 171.07 69.1083C171.398 69.2843 171.65 69.5123 171.826 69.7923C172.002 70.0723 172.09 70.3723 172.09 70.6923C172.09 71.1323 171.986 71.4963 171.778 71.7843C171.57 72.0723 171.302 72.2963 170.974 72.4563C170.646 72.6083 170.29 72.7163 169.906 72.7803C169.53 72.8443 169.17 72.8763 168.826 72.8763C168.61 72.8763 168.394 72.8683 168.178 72.8523C167.97 72.8283 167.786 72.8043 167.626 72.7803C167.69 73.3083 167.878 73.7123 168.19 73.9923C168.502 74.2723 168.902 74.4123 169.39 74.4123C169.79 74.4123 170.146 74.3603 170.458 74.2563C170.77 74.1523 171.034 74.0483 171.25 73.9443L171.346 74.9043C171.106 75.0163 170.802 75.1243 170.434 75.2283C170.066 75.3243 169.658 75.3723 169.21 75.3723ZM169.81 69.7563C169.434 69.7563 169.094 69.8523 168.79 70.0443C168.486 70.2283 168.234 70.4843 168.034 70.8123C167.842 71.1323 167.714 71.5003 167.65 71.9163C167.834 71.9483 168.018 71.9763 168.202 72.0003C168.394 72.0163 168.602 72.0243 168.826 72.0243C169.498 72.0243 170.03 71.9323 170.422 71.7483C170.814 71.5563 171.01 71.2323 171.01 70.7763C171.01 70.4963 170.898 70.2563 170.674 70.0563C170.458 69.8563 170.17 69.7563 169.81 69.7563ZM176.657 69.7923C176.377 69.7923 176.073 69.8963 175.745 70.1043C175.417 70.3123 175.113 70.6363 174.833 71.0763C174.561 71.5083 174.365 72.0643 174.245 72.7443L173.813 75.2283H172.733L173.825 68.9883H174.869L174.605 70.4283C174.853 69.9483 175.185 69.5643 175.601 69.2763C176.025 68.9883 176.469 68.8443 176.933 68.8443C177.477 68.8443 177.913 69.0123 178.241 69.3483C178.569 69.6763 178.733 70.0803 178.733 70.5603C178.733 70.7603 178.709 71.0123 178.661 71.3163L177.977 75.2283H176.897L177.557 71.4963C177.597 71.3043 177.621 71.1643 177.629 71.0763C177.637 70.9803 177.641 70.8923 177.641 70.8123C177.641 70.5003 177.549 70.2523 177.365 70.0683C177.189 69.8843 176.953 69.7923 176.657 69.7923ZM185.583 75.2883C185.151 75.2883 184.819 75.1843 184.587 74.9763C184.363 74.7603 184.251 74.4243 184.251 73.9683C184.019 74.3523 183.727 74.6843 183.375 74.9643C183.023 75.2363 182.615 75.3723 182.151 75.3723C181.751 75.3723 181.375 75.2683 181.023 75.0603C180.671 74.8443 180.387 74.5443 180.171 74.1603C179.963 73.7683 179.859 73.3043 179.859 72.7683C179.859 72.1523 179.951 71.6043 180.135 71.1243C180.319 70.6363 180.563 70.2243 180.867 69.8883C181.179 69.5523 181.519 69.2963 181.887 69.1203C182.263 68.9363 182.643 68.8443 183.027 68.8443C183.451 68.8443 183.815 68.9483 184.119 69.1563C184.431 69.3643 184.671 69.6203 184.839 69.9243L185.475 66.3483H186.555L185.283 73.5363C185.275 73.5763 185.267 73.6243 185.259 73.6803C185.259 73.7283 185.259 73.7803 185.259 73.8363C185.259 74.0603 185.323 74.2203 185.451 74.3163C185.579 74.4043 185.747 74.4483 185.955 74.4483L185.583 75.2883ZM182.439 74.4123C182.743 74.4123 183.031 74.3163 183.303 74.1243C183.583 73.9323 183.823 73.6643 184.023 73.3203C184.231 72.9683 184.375 72.5563 184.455 72.0843L184.671 70.8483C184.511 70.5123 184.295 70.2523 184.023 70.0683C183.751 69.8763 183.451 69.7803 183.123 69.7803C182.755 69.7803 182.403 69.8963 182.067 70.1283C181.739 70.3523 181.471 70.6763 181.263 71.1003C181.063 71.5163 180.963 72.0203 180.963 72.6123C180.963 73.0043 181.031 73.3363 181.167 73.6083C181.311 73.8723 181.495 74.0723 181.719 74.2083C181.951 74.3443 182.191 74.4123 182.439 74.4123ZM196.71 68.7123C196.71 69.1283 196.61 69.5043 196.41 69.8403C196.218 70.1683 195.962 70.4683 195.642 70.7403C195.322 71.0123 194.978 71.2763 194.61 71.5323C194.25 71.7803 193.898 72.0403 193.554 72.3123C193.218 72.5763 192.926 72.8643 192.678 73.1763C192.43 73.4883 192.266 73.8443 192.186 74.2443H196.002L195.834 75.2283H191.01C191.002 75.1643 190.994 75.0923 190.986 75.0123C190.978 74.9323 190.974 74.8563 190.974 74.7843C190.974 74.2243 191.082 73.7323 191.298 73.3083C191.522 72.8763 191.806 72.4923 192.15 72.1563C192.502 71.8203 192.87 71.5123 193.254 71.2323C193.646 70.9523 194.014 70.6883 194.358 70.4403C194.71 70.1843 194.994 69.9243 195.21 69.6603C195.434 69.3963 195.546 69.1083 195.546 68.7963C195.546 68.4443 195.426 68.1643 195.186 67.9563C194.946 67.7483 194.65 67.6443 194.298 67.6443C193.954 67.6443 193.642 67.7083 193.362 67.8363C193.09 67.9643 192.818 68.1443 192.546 68.3763L192.042 67.5603C192.37 67.2963 192.726 67.0843 193.11 66.9243C193.494 66.7643 193.934 66.6843 194.43 66.6843C194.886 66.6843 195.282 66.7723 195.618 66.9483C195.962 67.1243 196.23 67.3643 196.422 67.6683C196.614 67.9723 196.71 68.3203 196.71 68.7123Z" fill="white"/>
<rect x="49" y="67.2283" width="8" height="8" rx="4" fill="#6979F8"/>
<path d="M63.98 66.8283H65.12L63.824 74.2083H67.676L67.496 75.2283H62.504L63.98 66.8283ZM71.0734 75.3723C70.5454 75.3723 70.0774 75.2603 69.6694 75.0363C69.2694 74.8043 68.9534 74.4763 68.7214 74.0523C68.4974 73.6203 68.3854 73.1123 68.3854 72.5283C68.3854 71.8643 68.5214 71.2523 68.7934 70.6923C69.0734 70.1323 69.4654 69.6843 69.9694 69.3483C70.4814 69.0123 71.0774 68.8443 71.7574 68.8443C72.2214 68.8443 72.6134 68.9323 72.9334 69.1083C73.2614 69.2843 73.5134 69.5123 73.6894 69.7923C73.8654 70.0723 73.9534 70.3723 73.9534 70.6923C73.9534 71.1323 73.8494 71.4963 73.6414 71.7843C73.4334 72.0723 73.1654 72.2963 72.8374 72.4563C72.5094 72.6083 72.1534 72.7163 71.7694 72.7803C71.3934 72.8443 71.0334 72.8763 70.6894 72.8763C70.4734 72.8763 70.2574 72.8683 70.0414 72.8523C69.8334 72.8283 69.6494 72.8043 69.4894 72.7803C69.5534 73.3083 69.7414 73.7123 70.0534 73.9923C70.3654 74.2723 70.7654 74.4123 71.2534 74.4123C71.6534 74.4123 72.0094 74.3603 72.3214 74.2563C72.6334 74.1523 72.8974 74.0483 73.1134 73.9443L73.2094 74.9043C72.9694 75.0163 72.6654 75.1243 72.2974 75.2283C71.9294 75.3243 71.5214 75.3723 71.0734 75.3723ZM71.6734 69.7563C71.2974 69.7563 70.9574 69.8523 70.6534 70.0443C70.3494 70.2283 70.0974 70.4843 69.8974 70.8123C69.7054 71.1323 69.5774 71.5003 69.5134 71.9163C69.6974 71.9483 69.8814 71.9763 70.0654 72.0003C70.2574 72.0163 70.4654 72.0243 70.6894 72.0243C71.3614 72.0243 71.8934 71.9323 72.2854 71.7483C72.6774 71.5563 72.8734 71.2323 72.8734 70.7763C72.8734 70.4963 72.7614 70.2563 72.5374 70.0563C72.3214 69.8563 72.0334 69.7563 71.6734 69.7563ZM78.5563 68.8443C79.0283 68.8443 79.4443 68.8923 79.8043 68.9883C80.1643 69.0843 80.4603 69.1803 80.6923 69.2763L79.6483 75.3003C79.5523 75.8523 79.4043 76.3043 79.2043 76.6563C79.0123 77.0083 78.7843 77.2803 78.5203 77.4723C78.2643 77.6723 77.9923 77.8123 77.7043 77.8923C77.4163 77.9723 77.1323 78.0123 76.8523 78.0123C76.3083 78.0123 75.8443 77.9003 75.4603 77.6763C75.0843 77.4523 74.7763 77.1923 74.5363 76.8963L75.3763 76.2723C75.7683 76.8083 76.2843 77.0763 76.9243 77.0763C77.3243 77.0763 77.6763 76.9283 77.9803 76.6323C78.2843 76.3363 78.5003 75.8323 78.6283 75.1203L78.8323 73.9443C78.6083 74.3043 78.3283 74.6083 77.9923 74.8563C77.6643 75.1043 77.2923 75.2283 76.8763 75.2283C76.4923 75.2283 76.1243 75.1323 75.7723 74.9403C75.4283 74.7483 75.1443 74.4683 74.9203 74.1003C74.7043 73.7323 74.5963 73.2803 74.5963 72.7443C74.5963 71.9683 74.7683 71.2883 75.1123 70.7043C75.4563 70.1203 75.9283 69.6643 76.5283 69.3363C77.1283 69.0083 77.8043 68.8443 78.5563 68.8443ZM75.7003 72.6243C75.7003 72.9843 75.7683 73.2883 75.9043 73.5363C76.0483 73.7763 76.2323 73.9603 76.4563 74.0883C76.6803 74.2083 76.9163 74.2683 77.1643 74.2683C77.4683 74.2683 77.7563 74.1603 78.0283 73.9443C78.3003 73.7283 78.5363 73.4243 78.7363 73.0323C78.9443 72.6403 79.0963 72.1803 79.1923 71.6523L79.5043 69.9123C79.3523 69.8643 79.1923 69.8283 79.0243 69.8043C78.8563 69.7723 78.6603 69.7563 78.4363 69.7563C77.9003 69.7563 77.4243 69.8843 77.0083 70.1403C76.6003 70.3883 76.2803 70.7283 76.0483 71.1603C75.8163 71.5923 75.7003 72.0803 75.7003 72.6243ZM84.2101 75.3723C83.6821 75.3723 83.2141 75.2603 82.8061 75.0363C82.4061 74.8043 82.0901 74.4763 81.8581 74.0523C81.6341 73.6203 81.5221 73.1123 81.5221 72.5283C81.5221 71.8643 81.6581 71.2523 81.9301 70.6923C82.2101 70.1323 82.6021 69.6843 83.1061 69.3483C83.6181 69.0123 84.2141 68.8443 84.8941 68.8443C85.3581 68.8443 85.7501 68.9323 86.0701 69.1083C86.3981 69.2843 86.6501 69.5123 86.8261 69.7923C87.0021 70.0723 87.0901 70.3723 87.0901 70.6923C87.0901 71.1323 86.9861 71.4963 86.7781 71.7843C86.5701 72.0723 86.3021 72.2963 85.9741 72.4563C85.6461 72.6083 85.2901 72.7163 84.9061 72.7803C84.5301 72.8443 84.1701 72.8763 83.8261 72.8763C83.6101 72.8763 83.3941 72.8683 83.1781 72.8523C82.9701 72.8283 82.7861 72.8043 82.6261 72.7803C82.6901 73.3083 82.8781 73.7123 83.1901 73.9923C83.5021 74.2723 83.9021 74.4123 84.3901 74.4123C84.7901 74.4123 85.1461 74.3603 85.4581 74.2563C85.7701 74.1523 86.0341 74.0483 86.2501 73.9443L86.3461 74.9043C86.1061 75.0163 85.8021 75.1243 85.4341 75.2283C85.0661 75.3243 84.6581 75.3723 84.2101 75.3723ZM84.8101 69.7563C84.4341 69.7563 84.0941 69.8523 83.7901 70.0443C83.4861 70.2283 83.2341 70.4843 83.0341 70.8123C82.8421 71.1323 82.7141 71.5003 82.6501 71.9163C82.8341 71.9483 83.0181 71.9763 83.2021 72.0003C83.3941 72.0163 83.6021 72.0243 83.8261 72.0243C84.4981 72.0243 85.0301 71.9323 85.4221 71.7483C85.8141 71.5563 86.0101 71.2323 86.0101 70.7763C86.0101 70.4963 85.8981 70.2563 85.6741 70.0563C85.4581 69.8563 85.1701 69.7563 84.8101 69.7563ZM91.6571 69.7923C91.3771 69.7923 91.0731 69.8963 90.7451 70.1043C90.4171 70.3123 90.1131 70.6363 89.8331 71.0763C89.5611 71.5083 89.3651 72.0643 89.2451 72.7443L88.8131 75.2283H87.7331L88.8251 68.9883H89.8691L89.6051 70.4283C89.8531 69.9483 90.1851 69.5643 90.6011 69.2763C91.0251 68.9883 91.4691 68.8443 91.9331 68.8443C92.4771 68.8443 92.9131 69.0123 93.2411 69.3483C93.5691 69.6763 93.7331 70.0803 93.7331 70.5603C93.7331 70.7603 93.7091 71.0123 93.6611 71.3163L92.9771 75.2283H91.8971L92.5571 71.4963C92.5971 71.3043 92.6211 71.1643 92.6291 71.0763C92.6371 70.9803 92.6411 70.8923 92.6411 70.8123C92.6411 70.5003 92.5491 70.2523 92.3651 70.0683C92.1891 69.8843 91.9531 69.7923 91.6571 69.7923ZM100.583 75.2883C100.151 75.2883 99.8195 75.1843 99.5875 74.9763C99.3635 74.7603 99.2515 74.4243 99.2515 73.9683C99.0195 74.3523 98.7275 74.6843 98.3755 74.9643C98.0235 75.2363 97.6155 75.3723 97.1515 75.3723C96.7515 75.3723 96.3755 75.2683 96.0235 75.0603C95.6715 74.8443 95.3875 74.5443 95.1715 74.1603C94.9635 73.7683 94.8595 73.3043 94.8595 72.7683C94.8595 72.1523 94.9515 71.6043 95.1355 71.1243C95.3195 70.6363 95.5635 70.2243 95.8675 69.8883C96.1795 69.5523 96.5195 69.2963 96.8875 69.1203C97.2635 68.9363 97.6435 68.8443 98.0275 68.8443C98.4515 68.8443 98.8155 68.9483 99.1195 69.1563C99.4315 69.3643 99.6715 69.6203 99.8395 69.9243L100.475 66.3483H101.555L100.283 73.5363C100.275 73.5763 100.267 73.6243 100.259 73.6803C100.259 73.7283 100.259 73.7803 100.259 73.8363C100.259 74.0603 100.323 74.2203 100.451 74.3163C100.579 74.4043 100.747 74.4483 100.955 74.4483L100.583 75.2883ZM97.4395 74.4123C97.7435 74.4123 98.0315 74.3163 98.3035 74.1243C98.5835 73.9323 98.8235 73.6643 99.0235 73.3203C99.2315 72.9683 99.3755 72.5563 99.4555 72.0843L99.6715 70.8483C99.5115 70.5123 99.2955 70.2523 99.0235 70.0683C98.7515 69.8763 98.4515 69.7803 98.1235 69.7803C97.7555 69.7803 97.4035 69.8963 97.0675 70.1283C96.7395 70.3523 96.4715 70.6763 96.2635 71.1003C96.0635 71.5163 95.9635 72.0203 95.9635 72.6123C95.9635 73.0043 96.0315 73.3363 96.1675 73.6083C96.3115 73.8723 96.4955 74.0723 96.7195 74.2083C96.9515 74.3443 97.1915 74.4123 97.4395 74.4123ZM108.29 74.2683L109.358 68.2323L107.57 69.4803L107.078 68.6163L109.886 66.8283H110.678L109.37 74.2683H110.798L110.63 75.2283H106.406L106.574 74.2683H108.29Z" fill="white"/>
<path d="M54.7129 39.2637C57.1519 39.2637 58.939 37.8062 59.188 35.6455H57.3276C57.0713 36.832 56.0532 37.5791 54.7129 37.5791C52.9111 37.5791 51.7905 36.0996 51.7905 33.7119C51.7905 31.3315 52.9111 29.8521 54.7056 29.8521C56.0386 29.8521 57.0566 30.6724 57.3203 31.9395H59.1807C58.9609 29.7349 57.1079 28.1675 54.7056 28.1675C51.71 28.1675 49.8569 30.2842 49.8569 33.7192C49.8569 37.1396 51.7173 39.2637 54.7129 39.2637ZM61.1729 39H62.9893V34.3491C62.9893 33.1992 63.6558 32.4229 64.8496 32.4229C65.9043 32.4229 66.4609 33.0454 66.4609 34.2612V39H68.2773V33.8291C68.2773 31.9248 67.2373 30.8408 65.5234 30.8408C64.3296 30.8408 63.4727 31.3828 63.0918 32.2837H62.96V27.8892H61.1729V39ZM73.1699 37.7036C72.3643 37.7036 71.7856 37.3008 71.7856 36.627C71.7856 35.9751 72.2617 35.6089 73.2798 35.543L75.0889 35.4258V36.063C75.0889 36.9932 74.2686 37.7036 73.1699 37.7036ZM72.6353 39.1318C73.6826 39.1318 74.5615 38.6777 75.0083 37.9014H75.1328V39H76.8833V33.5288C76.8833 31.8296 75.7261 30.8262 73.668 30.8262C71.7637 30.8262 70.438 31.7271 70.2915 33.1406H72.0054C72.1738 32.5986 72.7451 32.3057 73.5801 32.3057C74.5615 32.3057 75.0889 32.7451 75.0889 33.5288V34.2026L73.0234 34.3271C71.0752 34.4443 69.9839 35.2793 69.9839 36.7295C69.9839 38.1943 71.0898 39.1318 72.6353 39.1318ZM79.0732 39H80.8896V34.3711C80.8896 33.2505 81.71 32.5181 82.8892 32.5181C83.1968 32.5181 83.6802 32.5693 83.8193 32.6206V30.936C83.6509 30.8848 83.3286 30.8555 83.0649 30.8555C82.0322 30.8555 81.168 31.4414 80.9482 32.2324H80.8237V30.9873H79.0732V39ZM86.2583 29.0244V31.0386H84.9912V32.4888H86.2583V36.8613C86.2583 38.4141 86.9907 39.0366 88.8291 39.0366C89.1807 39.0366 89.5176 39 89.7812 38.9487V37.5278C89.5615 37.5498 89.4224 37.5645 89.166 37.5645C88.4043 37.5645 88.0674 37.2129 88.0674 36.4219V32.4888H89.7812V31.0386H88.0674V29.0244H86.2583ZM104.701 39V28.4312H102.818V32.8037H97.6768V28.4312H95.7871V39H97.6768V34.437H102.818V39H104.701ZM110.487 32.269C111.578 32.269 112.296 33.0308 112.333 34.2173H108.561C108.641 33.0454 109.403 32.269 110.487 32.269ZM112.347 36.7954C112.083 37.3887 111.461 37.7183 110.56 37.7183C109.366 37.7183 108.597 36.8833 108.553 35.5503V35.4551H114.149V34.8691C114.149 32.3423 112.779 30.8262 110.494 30.8262C108.172 30.8262 106.729 32.4448 106.729 35.0229C106.729 37.6011 108.15 39.1611 110.509 39.1611C112.398 39.1611 113.724 38.2529 114.068 36.7954H112.347ZM118.712 37.7036C117.906 37.7036 117.328 37.3008 117.328 36.627C117.328 35.9751 117.804 35.6089 118.822 35.543L120.631 35.4258V36.063C120.631 36.9932 119.811 37.7036 118.712 37.7036ZM118.177 39.1318C119.225 39.1318 120.104 38.6777 120.55 37.9014H120.675V39H122.425V33.5288C122.425 31.8296 121.268 30.8262 119.21 30.8262C117.306 30.8262 115.98 31.7271 115.833 33.1406H117.547C117.716 32.5986 118.287 32.3057 119.122 32.3057C120.104 32.3057 120.631 32.7451 120.631 33.5288V34.2026L118.565 34.3271C116.617 34.4443 115.526 35.2793 115.526 36.7295C115.526 38.1943 116.632 39.1318 118.177 39.1318ZM127.516 39.1318C128.629 39.1318 129.552 38.6118 130.006 37.7329H130.13V39H131.888V27.8892H130.072V32.2617H129.947C129.522 31.3828 128.614 30.8555 127.516 30.8555C125.494 30.8555 124.22 32.4521 124.22 34.9863C124.22 37.5352 125.487 39.1318 127.516 39.1318ZM128.08 32.4009C129.325 32.4009 130.094 33.397 130.094 34.9937C130.094 36.605 129.332 37.5864 128.08 37.5864C126.834 37.5864 126.08 36.6123 126.08 34.9937C126.08 33.3823 126.842 32.4009 128.08 32.4009ZM137.542 32.269C138.634 32.269 139.352 33.0308 139.388 34.2173H135.616C135.697 33.0454 136.458 32.269 137.542 32.269ZM139.403 36.7954C139.139 37.3887 138.517 37.7183 137.616 37.7183C136.422 37.7183 135.653 36.8833 135.609 35.5503V35.4551H141.205V34.8691C141.205 32.3423 139.835 30.8262 137.55 30.8262C135.228 30.8262 133.785 32.4448 133.785 35.0229C133.785 37.6011 135.206 39.1611 137.564 39.1611C139.454 39.1611 140.78 38.2529 141.124 36.7954H139.403ZM143.028 39H144.845V34.3711C144.845 33.2505 145.665 32.5181 146.844 32.5181C147.152 32.5181 147.635 32.5693 147.774 32.6206V30.936C147.606 30.8848 147.284 30.8555 147.02 30.8555C145.987 30.8555 145.123 31.4414 144.903 32.2324H144.779V30.9873H143.028V39Z" fill="white"/>
<path fill-rule="evenodd" clip-rule="evenodd" d="M282.714 258.611V101.032C282.714 99.1427 284.246 97.6113 286.135 97.6113C288.024 97.6113 289.555 99.1427 289.555 101.032V258.611H282.714Z" fill="#6979F8"/>
<path fill-rule="evenodd" clip-rule="evenodd" d="M271.714 258.611V152.032C271.714 150.143 273.246 148.611 275.135 148.611C277.024 148.611 278.555 150.143 278.555 152.032V258.611H271.714Z" fill="#9BA6FA"/>
<path fill-rule="evenodd" clip-rule="evenodd" d="M234.232 258.611V122.032C234.232 120.143 235.763 118.611 237.653 118.611C239.542 118.611 241.073 120.143 241.073 122.032V258.611H234.232Z" fill="#6979F8"/>
<path fill-rule="evenodd" clip-rule="evenodd" d="M223.232 258.611V182.032C223.232 180.143 224.763 178.611 226.653 178.611C228.542 178.611 230.073 180.143 230.073 182.032V258.611H223.232Z" fill="#9BA6FA"/>
<path fill-rule="evenodd" clip-rule="evenodd" d="M185.75 258.611V142.032C185.75 140.143 187.281 138.611 189.17 138.611C191.059 138.611 192.591 140.143 192.591 142.032V258.611H185.75Z" fill="#6979F8"/>
<path fill-rule="evenodd" clip-rule="evenodd" d="M174.75 258.611V172.032C174.75 170.143 176.281 168.611 178.17 168.611C180.059 168.611 181.591 170.143 181.591 172.032V258.611H174.75Z" fill="#9BA6FA"/>
<path fill-rule="evenodd" clip-rule="evenodd" d="M137.268 258.611V112.032C137.268 110.143 138.799 108.611 140.688 108.611C142.577 108.611 144.109 110.143 144.109 112.032V258.611H137.268Z" fill="#6979F8"/>
<path fill-rule="evenodd" clip-rule="evenodd" d="M126.268 258.611V132.032C126.268 130.143 127.799 128.611 129.688 128.611C131.577 128.611 133.109 130.143 133.109 132.032V258.611H126.268Z" fill="#9BA6FA"/>
<path fill-rule="evenodd" clip-rule="evenodd" d="M331.117 258.611L331.117 101.111C331.117 99.1783 332.684 97.6113 334.617 97.6113C336.55 97.6113 338.117 99.1783 338.117 101.111V258.611H331.117Z" fill="#6979F8"/>
<path fill-rule="evenodd" clip-rule="evenodd" d="M320.117 258.611L320.117 182.111C320.117 180.178 321.684 178.611 323.617 178.611C325.55 178.611 327.117 180.178 327.117 182.111V258.611H320.117Z" fill="#9BA6FA"/>
<path fill-rule="evenodd" clip-rule="evenodd" d="M88.7856 258.611V132.032C88.7856 130.143 90.317 128.611 92.2061 128.611C94.0951 128.611 95.6265 130.143 95.6265 132.032V258.611H88.7856Z" fill="#6979F8"/>
<path fill-rule="evenodd" clip-rule="evenodd" d="M77.7856 258.611V182.032C77.7856 180.143 79.317 178.611 81.2061 178.611C83.0951 178.611 84.6265 180.143 84.6265 182.032V258.611H77.7856Z" fill="#9BA6FA"/>
<rect x="32.75" y="8.75" width="325.5" height="310.5" stroke="white" stroke-width="0.5"/>
</g>
<defs>
<filter id="filter0_dd_0_233" x="0.5" y="0.5" width="390" height="375" filterUnits="userSpaceOnUse" color-interpolation-filters="sRGB">
<feFlood flood-opacity="0" result="BackgroundImageFix"/>
<feColorMatrix in="SourceAlpha" type="matrix" values="0 0 0 0 0 0 0 0 0 0 0 0 0 0 0 0 0 0 127 0" result="hardAlpha"/>
<feOffset dy="24"/>
<feGaussianBlur stdDeviation="16"/>
<feColorMatrix type="matrix" values="0 0 0 0 0.196487 0 0 0 0 0.196487 0 0 0 0 0.279476 0 0 0 0.08 0"/>
<feBlend mode="multiply" in2="BackgroundImageFix" result="effect1_dropShadow_0_233"/>
<feColorMatrix in="SourceAlpha" type="matrix" values="0 0 0 0 0 0 0 0 0 0 0 0 0 0 0 0 0 0 127 0" result="hardAlpha"/>
<feOffset dy="16"/>
<feGaussianBlur stdDeviation="8"/>
<feColorMatrix type="matrix" values="0 0 0 0 0.196487 0 0 0 0 0.196487 0 0 0 0 0.279476 0 0 0 0.08 0"/>
<feBlend mode="multiply" in2="effect1_dropShadow_0_233" result="effect2_dropShadow_0_233"/>
<feBlend mode="normal" in="SourceGraphic" in2="effect2_dropShadow_0_233" result="shape"/>
</filter>
</defs>
</svg>
