<svg width="391" height="376" viewBox="0 0 391 376" fill="none" xmlns="http://www.w3.org/2000/svg">
<g filter="url(#filter0_dd_0_604)">
<rect x="33" y="9" width="325" height="310" rx="10" fill="black"/>
<path d="M77 259.5H339" stroke="#E4E4E4" stroke-opacity="0.2" stroke-linecap="square"/>
<path d="M77 222.5H339" stroke="#E4E4E4" stroke-opacity="0.2" stroke-linecap="square"/>
<path d="M77 185.5H339" stroke="#E4E4E4" stroke-opacity="0.2" stroke-linecap="square"/>
<path d="M77 148.5H339" stroke="#E4E4E4" stroke-opacity="0.2" stroke-linecap="square"/>
<path d="M77 111.5H339" stroke="#E4E4E4" stroke-opacity="0.2" stroke-linecap="square"/>
<path d="M77 74.5H339" stroke="#E4E4E4" stroke-opacity="0.2" stroke-linecap="square"/>
<path d="M79.5 241.175L114.564 230.139L150.629 179.977L186.193 199.039L222.259 147.874L258.825 127.809L292.386 163.295L320.436 105.738L336.5 96.7451" stroke="#6979F8" stroke-width="2" stroke-linecap="round" stroke-linejoin="round"/>
<g filter="url(#filter1_dd_0_604)">
<rect x="251.5" y="122.175" width="14" height="14" rx="7" fill="#6979F8"/>
<rect x="252.5" y="123.175" width="12" height="12" rx="6" stroke="white" stroke-width="2"/>
</g>
<g filter="url(#filter2_dd_0_604)">
<rect x="313.5" y="99.1749" width="14" height="14" rx="7" fill="#6979F8"/>
<rect x="314.5" y="100.175" width="12" height="12" rx="6" stroke="white" stroke-width="2"/>
</g>
<g filter="url(#filter3_dd_0_604)">
<rect x="284.5" y="156.175" width="14" height="14" rx="7" fill="#6979F8"/>
<rect x="285.5" y="157.175" width="12" height="12" rx="6" stroke="white" stroke-width="2"/>
</g>
<g filter="url(#filter4_dd_0_604)">
<rect x="217.5" y="139.175" width="14" height="14" rx="7" fill="#6979F8"/>
<rect x="218.5" y="140.175" width="12" height="12" rx="6" stroke="white" stroke-width="2"/>
</g>
<g filter="url(#filter5_dd_0_604)">
<rect x="178.5" y="191.175" width="14" height="14" rx="7" fill="#6979F8"/>
<rect x="179.5" y="192.175" width="12" height="12" rx="6" stroke="white" stroke-width="2"/>
</g>
<g filter="url(#filter6_dd_0_604)">
<rect x="144.5" y="173.175" width="14" height="14" rx="7" fill="#6979F8"/>
<rect x="145.5" y="174.175" width="12" height="12" rx="6" stroke="white" stroke-width="2"/>
</g>
<g filter="url(#filter7_dd_0_604)">
<rect x="107.5" y="222.175" width="14" height="14" rx="7" fill="#6979F8"/>
<rect x="108.5" y="223.175" width="12" height="12" rx="6" stroke="white" stroke-width="2"/>
</g>
<path d="M276.634 287V279.25H275.511L272.858 285.663H272.772L270.119 279.25H268.996V287H269.898V281.081H269.963L272.407 286.946H273.223L275.667 281.081H275.731V287H276.634ZM280.275 286.291C279.604 286.291 279.104 285.947 279.104 285.356C279.104 284.776 279.491 284.47 280.372 284.411L281.93 284.309V284.841C281.93 285.668 281.226 286.291 280.275 286.291ZM280.104 287.102C280.877 287.102 281.511 286.764 281.887 286.146H281.973V287H282.854V283.036C282.854 281.833 282.064 281.108 280.651 281.108C279.416 281.108 278.503 281.72 278.379 282.649H279.314C279.443 282.193 279.926 281.93 280.619 281.93C281.484 281.93 281.93 282.322 281.93 283.036V283.562L280.259 283.665C278.911 283.745 278.148 284.341 278.148 285.378C278.148 286.436 278.981 287.102 280.104 287.102ZM284.841 289.095C285.867 289.095 286.329 288.697 286.823 287.354L289.084 281.21H288.101L286.517 285.974H286.431L284.841 281.21H283.842L285.985 287.005L285.877 287.349C285.636 288.047 285.346 288.3 284.814 288.3C284.685 288.3 284.54 288.294 284.427 288.273V289.062C284.556 289.084 284.717 289.095 284.841 289.095Z" fill="#999999"/>
<path d="M226.42 287H227.436L224.578 279.25H223.622L220.765 287H221.78L222.559 284.782H225.642L226.42 287ZM224.057 280.501H224.143L225.357 283.96H222.843L224.057 280.501ZM231.496 281.108C230.707 281.108 230.014 281.511 229.643 282.177H229.557V281.21H228.676V288.934H229.6V286.13H229.686C230.003 286.742 230.669 287.102 231.496 287.102C232.968 287.102 233.929 285.915 233.929 284.105C233.929 282.284 232.973 281.108 231.496 281.108ZM231.276 286.27C230.234 286.27 229.573 285.432 229.573 284.105C229.573 282.773 230.234 281.94 231.281 281.94C232.339 281.94 232.973 282.751 232.973 284.105C232.973 285.458 232.339 286.27 231.276 286.27ZM235.379 287H236.303V283.412C236.303 282.596 236.942 282.005 237.823 282.005C238.006 282.005 238.339 282.037 238.414 282.059V281.135C238.296 281.119 238.103 281.108 237.952 281.108C237.184 281.108 236.518 281.505 236.346 282.069H236.26V281.21H235.379V287Z" fill="#999999"/>
<path d="M180.054 287V279.25H178.931L176.278 285.663H176.192L173.539 279.25H172.416V287H173.318V281.081H173.383L175.827 286.946H176.643L179.087 281.081H179.151V287H180.054ZM183.695 286.291C183.024 286.291 182.524 285.947 182.524 285.356C182.524 284.776 182.911 284.47 183.792 284.411L185.35 284.309V284.841C185.35 285.668 184.646 286.291 183.695 286.291ZM183.523 287.102C184.297 287.102 184.931 286.764 185.307 286.146H185.393V287H186.273V283.036C186.273 281.833 185.484 281.108 184.071 281.108C182.836 281.108 181.923 281.72 181.799 282.649H182.734C182.863 282.193 183.346 281.93 184.039 281.93C184.904 281.93 185.35 282.322 185.35 283.036V283.562L183.679 283.665C182.331 283.745 181.568 284.341 181.568 285.378C181.568 286.436 182.401 287.102 183.523 287.102ZM187.981 287H188.905V283.412C188.905 282.596 189.544 282.005 190.425 282.005C190.608 282.005 190.941 282.037 191.016 282.059V281.135C190.898 281.119 190.705 281.108 190.554 281.108C189.786 281.108 189.12 281.505 188.948 282.069H188.862V281.21H187.981V287Z" fill="#999999"/>
<path d="M124.969 287V283.643H128.401V282.784H124.969V280.12H128.708V279.25H124.002V287H124.969ZM132.489 281.924C133.407 281.924 134.02 282.601 134.041 283.627H130.851C130.92 282.601 131.565 281.924 132.489 281.924ZM134.014 285.501C133.772 286.012 133.268 286.286 132.521 286.286C131.538 286.286 130.899 285.561 130.851 284.417V284.374H135.013V284.019C135.013 282.22 134.062 281.108 132.5 281.108C130.91 281.108 129.889 282.29 129.889 284.11C129.889 285.942 130.894 287.102 132.5 287.102C133.767 287.102 134.659 286.495 134.938 285.501H134.014ZM139.342 287.102C140.809 287.102 141.77 285.915 141.77 284.105C141.77 282.284 140.814 281.108 139.342 281.108C138.547 281.108 137.844 281.5 137.527 282.123H137.441V278.911H136.517V287H137.398V286.076H137.484C137.849 286.721 138.537 287.102 139.342 287.102ZM139.127 281.94C140.186 281.94 140.814 282.751 140.814 284.105C140.814 285.458 140.186 286.27 139.127 286.27C138.075 286.27 137.419 285.442 137.419 284.105C137.419 282.768 138.075 281.94 139.127 281.94Z" fill="#999999"/>
<path d="M318.989 285.19C318.989 286.377 319.902 287.183 321.202 287.183C322.604 287.183 323.458 286.318 323.458 284.841V279.25H322.491V284.835C322.491 285.786 322.024 286.291 321.197 286.291C320.466 286.291 319.972 285.84 319.951 285.19H318.989ZM330 281.21H329.076V284.637C329.076 285.652 328.518 286.259 327.497 286.259C326.573 286.259 326.187 285.775 326.187 284.733V281.21H325.263V284.959C325.263 286.329 325.939 287.102 327.239 287.102C328.125 287.102 328.743 286.737 329.033 286.092H329.119V287H330V281.21ZM331.74 287H332.664V283.573C332.664 282.558 333.26 281.94 334.184 281.94C335.108 281.94 335.548 282.435 335.548 283.477V287H336.472V283.251C336.472 281.876 335.747 281.108 334.447 281.108C333.561 281.108 332.997 281.484 332.707 282.123H332.621V281.21H331.74V287Z" fill="#999999"/>
<path d="M75.7559 285.19C75.7559 286.377 76.6689 287.183 77.9688 287.183C79.3706 287.183 80.2246 286.318 80.2246 284.841V279.25H79.2578V284.835C79.2578 285.786 78.7905 286.291 77.9634 286.291C77.2329 286.291 76.7388 285.84 76.7173 285.19H75.7559ZM83.8662 286.291C83.1948 286.291 82.6953 285.947 82.6953 285.356C82.6953 284.776 83.082 284.47 83.9629 284.411L85.5205 284.309V284.841C85.5205 285.668 84.8169 286.291 83.8662 286.291ZM83.6943 287.102C84.4678 287.102 85.1016 286.764 85.4775 286.146H85.5635V287H86.4443V283.036C86.4443 281.833 85.6548 281.108 84.2422 281.108C83.0068 281.108 82.0938 281.72 81.9702 282.649H82.9048C83.0337 282.193 83.5171 281.93 84.21 281.93C85.0747 281.93 85.5205 282.322 85.5205 283.036V283.562L83.8501 283.665C82.502 283.745 81.7393 284.341 81.7393 285.378C81.7393 286.436 82.5718 287.102 83.6943 287.102ZM88.1523 287H89.0762V283.573C89.0762 282.558 89.6724 281.94 90.5962 281.94C91.52 281.94 91.9604 282.435 91.9604 283.477V287H92.8843V283.251C92.8843 281.876 92.1592 281.108 90.8594 281.108C89.9731 281.108 89.4092 281.484 89.1191 282.123H89.0332V281.21H88.1523V287Z" fill="#999999"/>
<path d="M66.541 262.183C68.2812 262.183 69.2803 260.711 69.2803 258.138C69.2803 255.571 68.2651 254.067 66.541 254.067C64.8062 254.067 63.791 255.565 63.791 258.122C63.791 260.7 64.7954 262.183 66.541 262.183ZM66.541 261.339C65.397 261.339 64.7632 260.195 64.7632 258.122C64.7632 256.076 65.4077 254.916 66.541 254.916C67.6743 254.916 68.3081 256.065 68.3081 258.122C68.3081 260.201 67.6851 261.339 66.541 261.339Z" fill="#999999"/>
<path d="M58.0869 225H59.0537V217.25H58.0923L56.0298 218.732V219.752L58.001 218.324H58.0869V225ZM61.6909 226.971L62.5342 223.915H61.5083L60.998 226.971H61.6909ZM66.541 225.183C68.2812 225.183 69.2803 223.711 69.2803 221.138C69.2803 218.571 68.2651 217.067 66.541 217.067C64.8062 217.067 63.791 218.565 63.791 221.122C63.791 223.7 64.7954 225.183 66.541 225.183ZM66.541 224.339C65.397 224.339 64.7632 223.195 64.7632 221.122C64.7632 219.076 65.4077 217.916 66.541 217.916C67.6743 217.916 68.3081 219.065 68.3081 221.122C68.3081 223.201 67.6851 224.339 66.541 224.339Z" fill="#999999"/>
<path d="M54.6064 182.43V182.436H55.541V182.43C55.541 181.517 56.1533 180.91 57.061 180.91C57.915 180.91 58.5757 181.506 58.5757 182.28C58.5757 182.903 58.334 183.322 57.335 184.407L54.6548 187.334V188H59.6714V187.13H56.0405V187.044L57.9043 185.041C59.1772 183.676 59.5425 183.048 59.5425 182.242C59.5425 181.012 58.479 180.067 57.0879 180.067C55.6484 180.067 54.6064 181.055 54.6064 182.43ZM61.7339 189.971L62.5771 186.915H61.5513L61.041 189.971H61.7339ZM66.6108 188.183C68.2168 188.183 69.3179 187.108 69.3179 185.535C69.3179 184.009 68.2866 182.94 66.8149 182.94C66.1006 182.94 65.5527 183.161 65.1768 183.601H65.0908L65.311 181.114H68.8774V180.25H64.5537L64.1294 184.643H65.0371C65.354 184.09 65.9341 183.773 66.6377 183.773C67.6528 183.773 68.3511 184.498 68.3511 185.562C68.3511 186.625 67.6582 187.334 66.6216 187.334C65.7085 187.334 65.0425 186.775 64.9565 185.938H64.0059C64.0918 187.275 65.1445 188.183 66.6108 188.183Z" fill="#999999"/>
<path d="M57.2222 151.183C58.8281 151.183 59.9292 150.108 59.9292 148.535C59.9292 147.009 58.8979 145.94 57.4263 145.94C56.7119 145.94 56.1641 146.161 55.7881 146.601H55.7021L55.9224 144.114H59.4888V143.249H55.165L54.7407 147.643H55.6484C55.9653 147.09 56.5454 146.773 57.249 146.773C58.2642 146.773 58.9624 147.498 58.9624 148.562C58.9624 149.625 58.2695 150.334 57.2329 150.334C56.3198 150.334 55.6538 149.775 55.5679 148.937H54.6172C54.7031 150.275 55.7559 151.183 57.2222 151.183ZM61.6909 152.971L62.5342 149.915H61.5083L60.998 152.971H61.6909ZM66.541 151.183C68.2812 151.183 69.2803 149.711 69.2803 147.138C69.2803 144.571 68.2651 143.067 66.541 143.067C64.8062 143.067 63.791 144.565 63.791 147.122C63.791 149.7 64.7954 151.183 66.541 151.183ZM66.541 150.339C65.397 150.339 64.7632 149.195 64.7632 147.122C64.7632 145.076 65.4077 143.916 66.541 143.916C67.6743 143.916 68.3081 145.065 68.3081 147.122C68.3081 149.201 67.6851 150.339 66.541 150.339Z" fill="#999999"/>
<path d="M56.5347 114H57.5498L60.998 107.146V106.249H55.8687V107.114H60.0151V107.189L56.5347 114ZM61.7339 115.971L62.5771 112.915H61.5513L61.041 115.971H61.7339ZM66.6108 114.183C68.2168 114.183 69.3179 113.108 69.3179 111.535C69.3179 110.009 68.2866 108.94 66.8149 108.94C66.1006 108.94 65.5527 109.161 65.1768 109.601H65.0908L65.311 107.114H68.8774V106.249H64.5537L64.1294 110.643H65.0371C65.354 110.09 65.9341 109.773 66.6377 109.773C67.6528 109.773 68.3511 110.498 68.3511 111.562C68.3511 112.625 67.6582 113.334 66.6216 113.334C65.7085 113.334 65.0425 112.775 64.9565 111.937H64.0059C64.0918 113.275 65.1445 114.183 66.6108 114.183Z" fill="#999999"/>
<path d="M60.6543 77.9999H61.6211V70.2494H60.6597L58.5972 71.7318V72.7523L60.5684 71.3236H60.6543V77.9999ZM66.541 78.1825C68.2812 78.1825 69.2803 76.7108 69.2803 74.1381C69.2803 71.5707 68.2651 70.0668 66.541 70.0668C64.8062 70.0668 63.791 71.5653 63.791 74.122C63.791 76.7001 64.7954 78.1825 66.541 78.1825ZM66.541 77.3392C65.397 77.3392 64.7632 76.1952 64.7632 74.122C64.7632 72.0756 65.4077 70.9154 66.541 70.9154C67.6743 70.9154 68.3081 72.0648 68.3081 74.122C68.3081 76.2006 67.6851 77.3392 66.541 77.3392Z" fill="#999999"/>
<path d="M54.7129 39.2637C57.1519 39.2637 58.939 37.8062 59.188 35.6455H57.3276C57.0713 36.832 56.0532 37.5791 54.7129 37.5791C52.9111 37.5791 51.7905 36.0996 51.7905 33.7119C51.7905 31.3315 52.9111 29.8521 54.7056 29.8521C56.0386 29.8521 57.0566 30.6724 57.3203 31.9395H59.1807C58.9609 29.7349 57.1079 28.1675 54.7056 28.1675C51.71 28.1675 49.8569 30.2842 49.8569 33.7192C49.8569 37.1396 51.7173 39.2637 54.7129 39.2637ZM61.1729 39H62.9893V34.3491C62.9893 33.1992 63.6558 32.4229 64.8496 32.4229C65.9043 32.4229 66.4609 33.0454 66.4609 34.2612V39H68.2773V33.8291C68.2773 31.9248 67.2373 30.8408 65.5234 30.8408C64.3296 30.8408 63.4727 31.3828 63.0918 32.2837H62.96V27.8892H61.1729V39ZM73.1699 37.7036C72.3643 37.7036 71.7856 37.3008 71.7856 36.627C71.7856 35.9751 72.2617 35.6089 73.2798 35.543L75.0889 35.4258V36.063C75.0889 36.9932 74.2686 37.7036 73.1699 37.7036ZM72.6353 39.1318C73.6826 39.1318 74.5615 38.6777 75.0083 37.9014H75.1328V39H76.8833V33.5288C76.8833 31.8296 75.7261 30.8262 73.668 30.8262C71.7637 30.8262 70.438 31.7271 70.2915 33.1406H72.0054C72.1738 32.5986 72.7451 32.3057 73.5801 32.3057C74.5615 32.3057 75.0889 32.7451 75.0889 33.5288V34.2026L73.0234 34.3271C71.0752 34.4443 69.9839 35.2793 69.9839 36.7295C69.9839 38.1943 71.0898 39.1318 72.6353 39.1318ZM79.0732 39H80.8896V34.3711C80.8896 33.2505 81.71 32.5181 82.8892 32.5181C83.1968 32.5181 83.6802 32.5693 83.8193 32.6206V30.936C83.6509 30.8848 83.3286 30.8555 83.0649 30.8555C82.0322 30.8555 81.168 31.4414 80.9482 32.2324H80.8237V30.9873H79.0732V39ZM86.2583 29.0244V31.0386H84.9912V32.4888H86.2583V36.8613C86.2583 38.4141 86.9907 39.0366 88.8291 39.0366C89.1807 39.0366 89.5176 39 89.7812 38.9487V37.5278C89.5615 37.5498 89.4224 37.5645 89.166 37.5645C88.4043 37.5645 88.0674 37.2129 88.0674 36.4219V32.4888H89.7812V31.0386H88.0674V29.0244H86.2583ZM104.701 39V28.4312H102.818V32.8037H97.6768V28.4312H95.7871V39H97.6768V34.437H102.818V39H104.701ZM110.487 32.269C111.578 32.269 112.296 33.0308 112.333 34.2173H108.561C108.641 33.0454 109.403 32.269 110.487 32.269ZM112.347 36.7954C112.083 37.3887 111.461 37.7183 110.56 37.7183C109.366 37.7183 108.597 36.8833 108.553 35.5503V35.4551H114.149V34.8691C114.149 32.3423 112.779 30.8262 110.494 30.8262C108.172 30.8262 106.729 32.4448 106.729 35.0229C106.729 37.6011 108.15 39.1611 110.509 39.1611C112.398 39.1611 113.724 38.2529 114.068 36.7954H112.347ZM118.712 37.7036C117.906 37.7036 117.328 37.3008 117.328 36.627C117.328 35.9751 117.804 35.6089 118.822 35.543L120.631 35.4258V36.063C120.631 36.9932 119.811 37.7036 118.712 37.7036ZM118.177 39.1318C119.225 39.1318 120.104 38.6777 120.55 37.9014H120.675V39H122.425V33.5288C122.425 31.8296 121.268 30.8262 119.21 30.8262C117.306 30.8262 115.98 31.7271 115.833 33.1406H117.547C117.716 32.5986 118.287 32.3057 119.122 32.3057C120.104 32.3057 120.631 32.7451 120.631 33.5288V34.2026L118.565 34.3271C116.617 34.4443 115.526 35.2793 115.526 36.7295C115.526 38.1943 116.632 39.1318 118.177 39.1318ZM127.516 39.1318C128.629 39.1318 129.552 38.6118 130.006 37.7329H130.13V39H131.888V27.8892H130.072V32.2617H129.947C129.522 31.3828 128.614 30.8555 127.516 30.8555C125.494 30.8555 124.22 32.4521 124.22 34.9863C124.22 37.5352 125.487 39.1318 127.516 39.1318ZM128.08 32.4009C129.325 32.4009 130.094 33.397 130.094 34.9937C130.094 36.605 129.332 37.5864 128.08 37.5864C126.834 37.5864 126.08 36.6123 126.08 34.9937C126.08 33.3823 126.842 32.4009 128.08 32.4009ZM137.542 32.269C138.634 32.269 139.352 33.0308 139.388 34.2173H135.616C135.697 33.0454 136.458 32.269 137.542 32.269ZM139.403 36.7954C139.139 37.3887 138.517 37.7183 137.616 37.7183C136.422 37.7183 135.653 36.8833 135.609 35.5503V35.4551H141.205V34.8691C141.205 32.3423 139.835 30.8262 137.55 30.8262C135.228 30.8262 133.785 32.4448 133.785 35.0229C133.785 37.6011 135.206 39.1611 137.564 39.1611C139.454 39.1611 140.78 38.2529 141.124 36.7954H139.403ZM143.028 39H144.845V34.3711C144.845 33.2505 145.665 32.5181 146.844 32.5181C147.152 32.5181 147.635 32.5693 147.774 32.6206V30.936C147.606 30.8848 147.284 30.8555 147.02 30.8555C145.987 30.8555 145.123 31.4414 144.903 32.2324H144.779V30.9873H143.028V39Z" fill="white"/>
<rect x="32.75" y="8.75" width="325.5" height="310.5" stroke="white" stroke-width="0.5"/>
</g>
<defs>
<filter id="filter0_dd_0_604" x="0.5" y="0.5" width="390" height="375" filterUnits="userSpaceOnUse" color-interpolation-filters="sRGB">
<feFlood flood-opacity="0" result="BackgroundImageFix"/>
<feColorMatrix in="SourceAlpha" type="matrix" values="0 0 0 0 0 0 0 0 0 0 0 0 0 0 0 0 0 0 127 0" result="hardAlpha"/>
<feOffset dy="24"/>
<feGaussianBlur stdDeviation="16"/>
<feColorMatrix type="matrix" values="0 0 0 0 0.196487 0 0 0 0 0.196487 0 0 0 0 0.279476 0 0 0 0.08 0"/>
<feBlend mode="multiply" in2="BackgroundImageFix" result="effect1_dropShadow_0_604"/>
<feColorMatrix in="SourceAlpha" type="matrix" values="0 0 0 0 0 0 0 0 0 0 0 0 0 0 0 0 0 0 127 0" result="hardAlpha"/>
<feOffset dy="16"/>
<feGaussianBlur stdDeviation="8"/>
<feColorMatrix type="matrix" values="0 0 0 0 0.196487 0 0 0 0 0.196487 0 0 0 0 0.279476 0 0 0 0.08 0"/>
<feBlend mode="multiply" in2="effect1_dropShadow_0_604" result="effect2_dropShadow_0_604"/>
<feBlend mode="normal" in="SourceGraphic" in2="effect2_dropShadow_0_604" result="shape"/>
</filter>
<filter id="filter1_dd_0_604" x="247.5" y="120.175" width="22" height="22" filterUnits="userSpaceOnUse" color-interpolation-filters="sRGB">
<feFlood flood-opacity="0" result="BackgroundImageFix"/>
<feColorMatrix in="SourceAlpha" type="matrix" values="0 0 0 0 0 0 0 0 0 0 0 0 0 0 0 0 0 0 127 0" result="hardAlpha"/>
<feOffset dy="2"/>
<feGaussianBlur stdDeviation="2"/>
<feColorMatrix type="matrix" values="0 0 0 0 0.196487 0 0 0 0 0.196487 0 0 0 0 0.279476 0 0 0 0.06 0"/>
<feBlend mode="multiply" in2="BackgroundImageFix" result="effect1_dropShadow_0_604"/>
<feColorMatrix in="SourceAlpha" type="matrix" values="0 0 0 0 0 0 0 0 0 0 0 0 0 0 0 0 0 0 127 0" result="hardAlpha"/>
<feOffset dy="2"/>
<feGaussianBlur stdDeviation="1"/>
<feColorMatrix type="matrix" values="0 0 0 0 0.196487 0 0 0 0 0.196487 0 0 0 0 0.279476 0 0 0 0.06 0"/>
<feBlend mode="multiply" in2="effect1_dropShadow_0_604" result="effect2_dropShadow_0_604"/>
<feBlend mode="normal" in="SourceGraphic" in2="effect2_dropShadow_0_604" result="shape"/>
</filter>
<filter id="filter2_dd_0_604" x="309.5" y="97.1749" width="22" height="22" filterUnits="userSpaceOnUse" color-interpolation-filters="sRGB">
<feFlood flood-opacity="0" result="BackgroundImageFix"/>
<feColorMatrix in="SourceAlpha" type="matrix" values="0 0 0 0 0 0 0 0 0 0 0 0 0 0 0 0 0 0 127 0" result="hardAlpha"/>
<feOffset dy="2"/>
<feGaussianBlur stdDeviation="2"/>
<feColorMatrix type="matrix" values="0 0 0 0 0.196487 0 0 0 0 0.196487 0 0 0 0 0.279476 0 0 0 0.06 0"/>
<feBlend mode="multiply" in2="BackgroundImageFix" result="effect1_dropShadow_0_604"/>
<feColorMatrix in="SourceAlpha" type="matrix" values="0 0 0 0 0 0 0 0 0 0 0 0 0 0 0 0 0 0 127 0" result="hardAlpha"/>
<feOffset dy="2"/>
<feGaussianBlur stdDeviation="1"/>
<feColorMatrix type="matrix" values="0 0 0 0 0.196487 0 0 0 0 0.196487 0 0 0 0 0.279476 0 0 0 0.06 0"/>
<feBlend mode="multiply" in2="effect1_dropShadow_0_604" result="effect2_dropShadow_0_604"/>
<feBlend mode="normal" in="SourceGraphic" in2="effect2_dropShadow_0_604" result="shape"/>
</filter>
<filter id="filter3_dd_0_604" x="280.5" y="154.175" width="22" height="22" filterUnits="userSpaceOnUse" color-interpolation-filters="sRGB">
<feFlood flood-opacity="0" result="BackgroundImageFix"/>
<feColorMatrix in="SourceAlpha" type="matrix" values="0 0 0 0 0 0 0 0 0 0 0 0 0 0 0 0 0 0 127 0" result="hardAlpha"/>
<feOffset dy="2"/>
<feGaussianBlur stdDeviation="2"/>
<feColorMatrix type="matrix" values="0 0 0 0 0.196487 0 0 0 0 0.196487 0 0 0 0 0.279476 0 0 0 0.06 0"/>
<feBlend mode="multiply" in2="BackgroundImageFix" result="effect1_dropShadow_0_604"/>
<feColorMatrix in="SourceAlpha" type="matrix" values="0 0 0 0 0 0 0 0 0 0 0 0 0 0 0 0 0 0 127 0" result="hardAlpha"/>
<feOffset dy="2"/>
<feGaussianBlur stdDeviation="1"/>
<feColorMatrix type="matrix" values="0 0 0 0 0.196487 0 0 0 0 0.196487 0 0 0 0 0.279476 0 0 0 0.06 0"/>
<feBlend mode="multiply" in2="effect1_dropShadow_0_604" result="effect2_dropShadow_0_604"/>
<feBlend mode="normal" in="SourceGraphic" in2="effect2_dropShadow_0_604" result="shape"/>
</filter>
<filter id="filter4_dd_0_604" x="213.5" y="137.175" width="22" height="22" filterUnits="userSpaceOnUse" color-interpolation-filters="sRGB">
<feFlood flood-opacity="0" result="BackgroundImageFix"/>
<feColorMatrix in="SourceAlpha" type="matrix" values="0 0 0 0 0 0 0 0 0 0 0 0 0 0 0 0 0 0 127 0" result="hardAlpha"/>
<feOffset dy="2"/>
<feGaussianBlur stdDeviation="2"/>
<feColorMatrix type="matrix" values="0 0 0 0 0.196487 0 0 0 0 0.196487 0 0 0 0 0.279476 0 0 0 0.06 0"/>
<feBlend mode="multiply" in2="BackgroundImageFix" result="effect1_dropShadow_0_604"/>
<feColorMatrix in="SourceAlpha" type="matrix" values="0 0 0 0 0 0 0 0 0 0 0 0 0 0 0 0 0 0 127 0" result="hardAlpha"/>
<feOffset dy="2"/>
<feGaussianBlur stdDeviation="1"/>
<feColorMatrix type="matrix" values="0 0 0 0 0.196487 0 0 0 0 0.196487 0 0 0 0 0.279476 0 0 0 0.06 0"/>
<feBlend mode="multiply" in2="effect1_dropShadow_0_604" result="effect2_dropShadow_0_604"/>
<feBlend mode="normal" in="SourceGraphic" in2="effect2_dropShadow_0_604" result="shape"/>
</filter>
<filter id="filter5_dd_0_604" x="174.5" y="189.175" width="22" height="22" filterUnits="userSpaceOnUse" color-interpolation-filters="sRGB">
<feFlood flood-opacity="0" result="BackgroundImageFix"/>
<feColorMatrix in="SourceAlpha" type="matrix" values="0 0 0 0 0 0 0 0 0 0 0 0 0 0 0 0 0 0 127 0" result="hardAlpha"/>
<feOffset dy="2"/>
<feGaussianBlur stdDeviation="2"/>
<feColorMatrix type="matrix" values="0 0 0 0 0.196487 0 0 0 0 0.196487 0 0 0 0 0.279476 0 0 0 0.06 0"/>
<feBlend mode="multiply" in2="BackgroundImageFix" result="effect1_dropShadow_0_604"/>
<feColorMatrix in="SourceAlpha" type="matrix" values="0 0 0 0 0 0 0 0 0 0 0 0 0 0 0 0 0 0 127 0" result="hardAlpha"/>
<feOffset dy="2"/>
<feGaussianBlur stdDeviation="1"/>
<feColorMatrix type="matrix" values="0 0 0 0 0.196487 0 0 0 0 0.196487 0 0 0 0 0.279476 0 0 0 0.06 0"/>
<feBlend mode="multiply" in2="effect1_dropShadow_0_604" result="effect2_dropShadow_0_604"/>
<feBlend mode="normal" in="SourceGraphic" in2="effect2_dropShadow_0_604" result="shape"/>
</filter>
<filter id="filter6_dd_0_604" x="140.5" y="171.175" width="22" height="22" filterUnits="userSpaceOnUse" color-interpolation-filters="sRGB">
<feFlood flood-opacity="0" result="BackgroundImageFix"/>
<feColorMatrix in="SourceAlpha" type="matrix" values="0 0 0 0 0 0 0 0 0 0 0 0 0 0 0 0 0 0 127 0" result="hardAlpha"/>
<feOffset dy="2"/>
<feGaussianBlur stdDeviation="2"/>
<feColorMatrix type="matrix" values="0 0 0 0 0.196487 0 0 0 0 0.196487 0 0 0 0 0.279476 0 0 0 0.06 0"/>
<feBlend mode="multiply" in2="BackgroundImageFix" result="effect1_dropShadow_0_604"/>
<feColorMatrix in="SourceAlpha" type="matrix" values="0 0 0 0 0 0 0 0 0 0 0 0 0 0 0 0 0 0 127 0" result="hardAlpha"/>
<feOffset dy="2"/>
<feGaussianBlur stdDeviation="1"/>
<feColorMatrix type="matrix" values="0 0 0 0 0.196487 0 0 0 0 0.196487 0 0 0 0 0.279476 0 0 0 0.06 0"/>
<feBlend mode="multiply" in2="effect1_dropShadow_0_604" result="effect2_dropShadow_0_604"/>
<feBlend mode="normal" in="SourceGraphic" in2="effect2_dropShadow_0_604" result="shape"/>
</filter>
<filter id="filter7_dd_0_604" x="103.5" y="220.175" width="22" height="22" filterUnits="userSpaceOnUse" color-interpolation-filters="sRGB">
<feFlood flood-opacity="0" result="BackgroundImageFix"/>
<feColorMatrix in="SourceAlpha" type="matrix" values="0 0 0 0 0 0 0 0 0 0 0 0 0 0 0 0 0 0 127 0" result="hardAlpha"/>
<feOffset dy="2"/>
<feGaussianBlur stdDeviation="2"/>
<feColorMatrix type="matrix" values="0 0 0 0 0.196487 0 0 0 0 0.196487 0 0 0 0 0.279476 0 0 0 0.06 0"/>
<feBlend mode="multiply" in2="BackgroundImageFix" result="effect1_dropShadow_0_604"/>
<feColorMatrix in="SourceAlpha" type="matrix" values="0 0 0 0 0 0 0 0 0 0 0 0 0 0 0 0 0 0 127 0" result="hardAlpha"/>
<feOffset dy="2"/>
<feGaussianBlur stdDeviation="1"/>
<feColorMatrix type="matrix" values="0 0 0 0 0.196487 0 0 0 0 0.196487 0 0 0 0 0.279476 0 0 0 0.06 0"/>
<feBlend mode="multiply" in2="effect1_dropShadow_0_604" result="effect2_dropShadow_0_604"/>
<feBlend mode="normal" in="SourceGraphic" in2="effect2_dropShadow_0_604" result="shape"/>
</filter>
</defs>
</svg>
