<svg width="391" height="376" viewBox="0 0 391 376" fill="none" xmlns="http://www.w3.org/2000/svg">
<g filter="url(#filter0_dd_0_437)">
<rect x="33" y="9" width="325" height="310" rx="10" fill="black"/>
<rect x="78.5" y="249.129" width="8" height="8" rx="4" fill="#6979F8"/>
<path d="M93.48 248.729H94.62L93.324 256.109H97.176L96.996 257.129H92.004L93.48 248.729ZM100.573 257.273C100.045 257.273 99.5774 257.161 99.1694 256.937C98.7694 256.705 98.4534 256.377 98.2214 255.953C97.9974 255.521 97.8854 255.013 97.8854 254.429C97.8854 253.765 98.0214 253.153 98.2934 252.593C98.5734 252.033 98.9654 251.585 99.4694 251.249C99.9814 250.913 100.577 250.745 101.257 250.745C101.721 250.745 102.113 250.833 102.433 251.009C102.761 251.185 103.013 251.413 103.189 251.693C103.365 251.973 103.453 252.273 103.453 252.593C103.453 253.033 103.349 253.397 103.141 253.685C102.933 253.973 102.665 254.197 102.337 254.357C102.009 254.509 101.653 254.617 101.269 254.681C100.893 254.745 100.533 254.777 100.189 254.777C99.9734 254.777 99.7574 254.769 99.5414 254.753C99.3334 254.729 99.1494 254.705 98.9894 254.681C99.0534 255.209 99.2414 255.613 99.5534 255.893C99.8654 256.173 100.265 256.313 100.753 256.313C101.153 256.313 101.509 256.261 101.821 256.157C102.133 256.053 102.397 255.949 102.613 255.845L102.709 256.805C102.469 256.917 102.165 257.025 101.797 257.129C101.429 257.225 101.021 257.273 100.573 257.273ZM101.173 251.657C100.797 251.657 100.457 251.753 100.153 251.945C99.8494 252.129 99.5974 252.385 99.3974 252.713C99.2054 253.033 99.0774 253.401 99.0134 253.817C99.1974 253.849 99.3814 253.877 99.5654 253.901C99.7574 253.917 99.9654 253.925 100.189 253.925C100.861 253.925 101.393 253.833 101.785 253.649C102.177 253.457 102.373 253.133 102.373 252.677C102.373 252.397 102.261 252.157 102.037 251.957C101.821 251.757 101.533 251.657 101.173 251.657ZM108.056 250.745C108.528 250.745 108.944 250.793 109.304 250.889C109.664 250.985 109.96 251.081 110.192 251.177L109.148 257.201C109.052 257.753 108.904 258.205 108.704 258.557C108.512 258.909 108.284 259.181 108.02 259.373C107.764 259.573 107.492 259.713 107.204 259.793C106.916 259.873 106.632 259.913 106.352 259.913C105.808 259.913 105.344 259.801 104.96 259.577C104.584 259.353 104.276 259.093 104.036 258.797L104.876 258.173C105.268 258.709 105.784 258.977 106.424 258.977C106.824 258.977 107.176 258.829 107.48 258.533C107.784 258.237 108 257.733 108.128 257.021L108.332 255.845C108.108 256.205 107.828 256.509 107.492 256.757C107.164 257.005 106.792 257.129 106.376 257.129C105.992 257.129 105.624 257.033 105.272 256.841C104.928 256.649 104.644 256.369 104.42 256.001C104.204 255.633 104.096 255.181 104.096 254.645C104.096 253.869 104.268 253.189 104.612 252.605C104.956 252.021 105.428 251.565 106.028 251.237C106.628 250.909 107.304 250.745 108.056 250.745ZM105.2 254.525C105.2 254.885 105.268 255.189 105.404 255.437C105.548 255.677 105.732 255.861 105.956 255.989C106.18 256.109 106.416 256.169 106.664 256.169C106.968 256.169 107.256 256.061 107.528 255.845C107.8 255.629 108.036 255.325 108.236 254.933C108.444 254.541 108.596 254.081 108.692 253.553L109.004 251.813C108.852 251.765 108.692 251.729 108.524 251.705C108.356 251.673 108.16 251.657 107.936 251.657C107.4 251.657 106.924 251.785 106.508 252.041C106.1 252.289 105.78 252.629 105.548 253.061C105.316 253.493 105.2 253.981 105.2 254.525ZM113.71 257.273C113.182 257.273 112.714 257.161 112.306 256.937C111.906 256.705 111.59 256.377 111.358 255.953C111.134 255.521 111.022 255.013 111.022 254.429C111.022 253.765 111.158 253.153 111.43 252.593C111.71 252.033 112.102 251.585 112.606 251.249C113.118 250.913 113.714 250.745 114.394 250.745C114.858 250.745 115.25 250.833 115.57 251.009C115.898 251.185 116.15 251.413 116.326 251.693C116.502 251.973 116.59 252.273 116.59 252.593C116.59 253.033 116.486 253.397 116.278 253.685C116.07 253.973 115.802 254.197 115.474 254.357C115.146 254.509 114.79 254.617 114.406 254.681C114.03 254.745 113.67 254.777 113.326 254.777C113.11 254.777 112.894 254.769 112.678 254.753C112.47 254.729 112.286 254.705 112.126 254.681C112.19 255.209 112.378 255.613 112.69 255.893C113.002 256.173 113.402 256.313 113.89 256.313C114.29 256.313 114.646 256.261 114.958 256.157C115.27 256.053 115.534 255.949 115.75 255.845L115.846 256.805C115.606 256.917 115.302 257.025 114.934 257.129C114.566 257.225 114.158 257.273 113.71 257.273ZM114.31 251.657C113.934 251.657 113.594 251.753 113.29 251.945C112.986 252.129 112.734 252.385 112.534 252.713C112.342 253.033 112.214 253.401 112.15 253.817C112.334 253.849 112.518 253.877 112.702 253.901C112.894 253.917 113.102 253.925 113.326 253.925C113.998 253.925 114.53 253.833 114.922 253.649C115.314 253.457 115.51 253.133 115.51 252.677C115.51 252.397 115.398 252.157 115.174 251.957C114.958 251.757 114.67 251.657 114.31 251.657ZM121.157 251.693C120.877 251.693 120.573 251.797 120.245 252.005C119.917 252.213 119.613 252.537 119.333 252.977C119.061 253.409 118.865 253.965 118.745 254.645L118.313 257.129H117.233L118.325 250.889H119.369L119.105 252.329C119.353 251.849 119.685 251.465 120.101 251.177C120.525 250.889 120.969 250.745 121.433 250.745C121.977 250.745 122.413 250.913 122.741 251.249C123.069 251.577 123.233 251.981 123.233 252.461C123.233 252.661 123.209 252.913 123.161 253.217L122.477 257.129H121.397L122.057 253.397C122.097 253.205 122.121 253.065 122.129 252.977C122.137 252.881 122.141 252.793 122.141 252.713C122.141 252.401 122.049 252.153 121.865 251.969C121.689 251.785 121.453 251.693 121.157 251.693ZM130.083 257.189C129.651 257.189 129.319 257.085 129.087 256.877C128.863 256.661 128.751 256.325 128.751 255.869C128.519 256.253 128.227 256.585 127.875 256.865C127.523 257.137 127.115 257.273 126.651 257.273C126.251 257.273 125.875 257.169 125.523 256.961C125.171 256.745 124.887 256.445 124.671 256.061C124.463 255.669 124.359 255.205 124.359 254.669C124.359 254.053 124.451 253.505 124.635 253.025C124.819 252.537 125.063 252.125 125.367 251.789C125.679 251.453 126.019 251.197 126.387 251.021C126.763 250.837 127.143 250.745 127.527 250.745C127.951 250.745 128.315 250.849 128.619 251.057C128.931 251.265 129.171 251.521 129.339 251.825L129.975 248.249H131.055L129.783 255.437C129.775 255.477 129.767 255.525 129.759 255.581C129.759 255.629 129.759 255.681 129.759 255.737C129.759 255.961 129.823 256.121 129.951 256.217C130.079 256.305 130.247 256.349 130.455 256.349L130.083 257.189ZM126.939 256.313C127.243 256.313 127.531 256.217 127.803 256.025C128.083 255.833 128.323 255.565 128.523 255.221C128.731 254.869 128.875 254.457 128.955 253.985L129.171 252.749C129.011 252.413 128.795 252.153 128.523 251.969C128.251 251.777 127.951 251.681 127.623 251.681C127.255 251.681 126.903 251.797 126.567 252.029C126.239 252.253 125.971 252.577 125.763 253.001C125.563 253.417 125.463 253.921 125.463 254.513C125.463 254.905 125.531 255.237 125.667 255.509C125.811 255.773 125.995 255.973 126.219 256.109C126.451 256.245 126.691 256.313 126.939 256.313ZM137.79 256.169L138.858 250.133L137.07 251.381L136.578 250.517L139.386 248.729H140.178L138.87 256.169H140.298L140.13 257.129H135.906L136.074 256.169H137.79Z" fill="white"/>
<path d="M152.493 256.629V254.99H149.204V254.198L151.503 248.852L152.361 249.215L150.282 254.088H152.493V251.899H153.483V254.088H154.396V254.99H153.483V256.629H152.493ZM158.385 256.761C157.527 256.761 156.874 256.413 156.427 255.716C155.979 255.012 155.756 254.029 155.756 252.768C155.756 251.499 155.983 250.52 156.438 249.831C156.9 249.142 157.556 248.797 158.407 248.797C159.265 248.797 159.917 249.145 160.365 249.842C160.812 250.539 161.036 251.521 161.036 252.79C161.036 254.059 160.805 255.038 160.343 255.727C159.888 256.416 159.235 256.761 158.385 256.761ZM158.396 255.859C158.726 255.859 159.008 255.764 159.243 255.573C159.485 255.375 159.668 255.052 159.793 254.605C159.925 254.158 159.991 253.556 159.991 252.801C159.991 251.789 159.848 251.019 159.562 250.491C159.283 249.963 158.894 249.699 158.396 249.699C158.066 249.699 157.78 249.798 157.538 249.996C157.303 250.187 157.12 250.506 156.988 250.953C156.863 251.393 156.801 251.994 156.801 252.757C156.801 253.769 156.94 254.539 157.219 255.067C157.505 255.595 157.897 255.859 158.396 255.859ZM164.54 257.069L163.88 256.651L168.687 248.489L169.347 248.907L164.54 257.069ZM163.979 253.659C163.371 253.659 162.905 253.446 162.582 253.021C162.267 252.596 162.109 252.002 162.109 251.239C162.109 250.476 162.271 249.89 162.593 249.479C162.923 249.061 163.389 248.852 163.99 248.852C164.599 248.852 165.065 249.061 165.387 249.479C165.71 249.89 165.871 250.476 165.871 251.239C165.871 251.994 165.706 252.588 165.376 253.021C165.054 253.446 164.588 253.659 163.979 253.659ZM163.99 252.922C164.298 252.922 164.537 252.797 164.705 252.548C164.874 252.299 164.958 251.862 164.958 251.239C164.958 250.696 164.874 250.286 164.705 250.007C164.537 249.721 164.295 249.578 163.979 249.578C163.686 249.578 163.451 249.703 163.275 249.952C163.107 250.194 163.022 250.623 163.022 251.239C163.022 251.789 163.107 252.207 163.275 252.493C163.444 252.779 163.682 252.922 163.99 252.922ZM169.281 256.695C168.673 256.695 168.207 256.482 167.884 256.057C167.569 255.632 167.411 255.038 167.411 254.275C167.411 253.512 167.573 252.926 167.895 252.515C168.225 252.097 168.691 251.888 169.292 251.888C169.901 251.888 170.367 252.097 170.689 252.515C171.012 252.926 171.173 253.512 171.173 254.275C171.173 255.03 171.008 255.624 170.678 256.057C170.356 256.482 169.89 256.695 169.281 256.695ZM169.292 255.958C169.6 255.958 169.839 255.833 170.007 255.584C170.176 255.335 170.26 254.898 170.26 254.275C170.26 253.732 170.176 253.322 170.007 253.043C169.839 252.757 169.597 252.614 169.281 252.614C168.988 252.614 168.753 252.739 168.577 252.988C168.409 253.23 168.324 253.659 168.324 254.275C168.324 254.825 168.409 255.243 168.577 255.529C168.746 255.815 168.984 255.958 169.292 255.958Z" fill="#999999"/>
<rect x="216.5" y="249.129" width="8" height="8" rx="4" fill="#9BA6FA"/>
<path d="M231.48 248.729H232.62L231.324 256.109H235.176L234.996 257.129H230.004L231.48 248.729ZM238.573 257.273C238.045 257.273 237.577 257.161 237.169 256.937C236.769 256.705 236.453 256.377 236.221 255.953C235.997 255.521 235.885 255.013 235.885 254.429C235.885 253.765 236.021 253.153 236.293 252.593C236.573 252.033 236.965 251.585 237.469 251.249C237.981 250.913 238.577 250.745 239.257 250.745C239.721 250.745 240.113 250.833 240.433 251.009C240.761 251.185 241.013 251.413 241.189 251.693C241.365 251.973 241.453 252.273 241.453 252.593C241.453 253.033 241.349 253.397 241.141 253.685C240.933 253.973 240.665 254.197 240.337 254.357C240.009 254.509 239.653 254.617 239.269 254.681C238.893 254.745 238.533 254.777 238.189 254.777C237.973 254.777 237.757 254.769 237.541 254.753C237.333 254.729 237.149 254.705 236.989 254.681C237.053 255.209 237.241 255.613 237.553 255.893C237.865 256.173 238.265 256.313 238.753 256.313C239.153 256.313 239.509 256.261 239.821 256.157C240.133 256.053 240.397 255.949 240.613 255.845L240.709 256.805C240.469 256.917 240.165 257.025 239.797 257.129C239.429 257.225 239.021 257.273 238.573 257.273ZM239.173 251.657C238.797 251.657 238.457 251.753 238.153 251.945C237.849 252.129 237.597 252.385 237.397 252.713C237.205 253.033 237.077 253.401 237.013 253.817C237.197 253.849 237.381 253.877 237.565 253.901C237.757 253.917 237.965 253.925 238.189 253.925C238.861 253.925 239.393 253.833 239.785 253.649C240.177 253.457 240.373 253.133 240.373 252.677C240.373 252.397 240.261 252.157 240.037 251.957C239.821 251.757 239.533 251.657 239.173 251.657ZM246.056 250.745C246.528 250.745 246.944 250.793 247.304 250.889C247.664 250.985 247.96 251.081 248.192 251.177L247.148 257.201C247.052 257.753 246.904 258.205 246.704 258.557C246.512 258.909 246.284 259.181 246.02 259.373C245.764 259.573 245.492 259.713 245.204 259.793C244.916 259.873 244.632 259.913 244.352 259.913C243.808 259.913 243.344 259.801 242.96 259.577C242.584 259.353 242.276 259.093 242.036 258.797L242.876 258.173C243.268 258.709 243.784 258.977 244.424 258.977C244.824 258.977 245.176 258.829 245.48 258.533C245.784 258.237 246 257.733 246.128 257.021L246.332 255.845C246.108 256.205 245.828 256.509 245.492 256.757C245.164 257.005 244.792 257.129 244.376 257.129C243.992 257.129 243.624 257.033 243.272 256.841C242.928 256.649 242.644 256.369 242.42 256.001C242.204 255.633 242.096 255.181 242.096 254.645C242.096 253.869 242.268 253.189 242.612 252.605C242.956 252.021 243.428 251.565 244.028 251.237C244.628 250.909 245.304 250.745 246.056 250.745ZM243.2 254.525C243.2 254.885 243.268 255.189 243.404 255.437C243.548 255.677 243.732 255.861 243.956 255.989C244.18 256.109 244.416 256.169 244.664 256.169C244.968 256.169 245.256 256.061 245.528 255.845C245.8 255.629 246.036 255.325 246.236 254.933C246.444 254.541 246.596 254.081 246.692 253.553L247.004 251.813C246.852 251.765 246.692 251.729 246.524 251.705C246.356 251.673 246.16 251.657 245.936 251.657C245.4 251.657 244.924 251.785 244.508 252.041C244.1 252.289 243.78 252.629 243.548 253.061C243.316 253.493 243.2 253.981 243.2 254.525ZM251.71 257.273C251.182 257.273 250.714 257.161 250.306 256.937C249.906 256.705 249.59 256.377 249.358 255.953C249.134 255.521 249.022 255.013 249.022 254.429C249.022 253.765 249.158 253.153 249.43 252.593C249.71 252.033 250.102 251.585 250.606 251.249C251.118 250.913 251.714 250.745 252.394 250.745C252.858 250.745 253.25 250.833 253.57 251.009C253.898 251.185 254.15 251.413 254.326 251.693C254.502 251.973 254.59 252.273 254.59 252.593C254.59 253.033 254.486 253.397 254.278 253.685C254.07 253.973 253.802 254.197 253.474 254.357C253.146 254.509 252.79 254.617 252.406 254.681C252.03 254.745 251.67 254.777 251.326 254.777C251.11 254.777 250.894 254.769 250.678 254.753C250.47 254.729 250.286 254.705 250.126 254.681C250.19 255.209 250.378 255.613 250.69 255.893C251.002 256.173 251.402 256.313 251.89 256.313C252.29 256.313 252.646 256.261 252.958 256.157C253.27 256.053 253.534 255.949 253.75 255.845L253.846 256.805C253.606 256.917 253.302 257.025 252.934 257.129C252.566 257.225 252.158 257.273 251.71 257.273ZM252.31 251.657C251.934 251.657 251.594 251.753 251.29 251.945C250.986 252.129 250.734 252.385 250.534 252.713C250.342 253.033 250.214 253.401 250.15 253.817C250.334 253.849 250.518 253.877 250.702 253.901C250.894 253.917 251.102 253.925 251.326 253.925C251.998 253.925 252.53 253.833 252.922 253.649C253.314 253.457 253.51 253.133 253.51 252.677C253.51 252.397 253.398 252.157 253.174 251.957C252.958 251.757 252.67 251.657 252.31 251.657ZM259.157 251.693C258.877 251.693 258.573 251.797 258.245 252.005C257.917 252.213 257.613 252.537 257.333 252.977C257.061 253.409 256.865 253.965 256.745 254.645L256.313 257.129H255.233L256.325 250.889H257.369L257.105 252.329C257.353 251.849 257.685 251.465 258.101 251.177C258.525 250.889 258.969 250.745 259.433 250.745C259.977 250.745 260.413 250.913 260.741 251.249C261.069 251.577 261.233 251.981 261.233 252.461C261.233 252.661 261.209 252.913 261.161 253.217L260.477 257.129H259.397L260.057 253.397C260.097 253.205 260.121 253.065 260.129 252.977C260.137 252.881 260.141 252.793 260.141 252.713C260.141 252.401 260.049 252.153 259.865 251.969C259.689 251.785 259.453 251.693 259.157 251.693ZM268.083 257.189C267.651 257.189 267.319 257.085 267.087 256.877C266.863 256.661 266.751 256.325 266.751 255.869C266.519 256.253 266.227 256.585 265.875 256.865C265.523 257.137 265.115 257.273 264.651 257.273C264.251 257.273 263.875 257.169 263.523 256.961C263.171 256.745 262.887 256.445 262.671 256.061C262.463 255.669 262.359 255.205 262.359 254.669C262.359 254.053 262.451 253.505 262.635 253.025C262.819 252.537 263.063 252.125 263.367 251.789C263.679 251.453 264.019 251.197 264.387 251.021C264.763 250.837 265.143 250.745 265.527 250.745C265.951 250.745 266.315 250.849 266.619 251.057C266.931 251.265 267.171 251.521 267.339 251.825L267.975 248.249H269.055L267.783 255.437C267.775 255.477 267.767 255.525 267.759 255.581C267.759 255.629 267.759 255.681 267.759 255.737C267.759 255.961 267.823 256.121 267.951 256.217C268.079 256.305 268.247 256.349 268.455 256.349L268.083 257.189ZM264.939 256.313C265.243 256.313 265.531 256.217 265.803 256.025C266.083 255.833 266.323 255.565 266.523 255.221C266.731 254.869 266.875 254.457 266.955 253.985L267.171 252.749C267.011 252.413 266.795 252.153 266.523 251.969C266.251 251.777 265.951 251.681 265.623 251.681C265.255 251.681 264.903 251.797 264.567 252.029C264.239 252.253 263.971 252.577 263.763 253.001C263.563 253.417 263.463 253.921 263.463 254.513C263.463 254.905 263.531 255.237 263.667 255.509C263.811 255.773 263.995 255.973 264.219 256.109C264.451 256.245 264.691 256.313 264.939 256.313ZM274.674 253.193L274.818 252.317H275.202C275.986 252.317 276.614 252.177 277.086 251.897C277.558 251.609 277.794 251.221 277.794 250.733C277.794 250.365 277.666 250.073 277.41 249.857C277.162 249.633 276.842 249.521 276.45 249.521C276.082 249.521 275.766 249.581 275.502 249.701C275.238 249.813 275.002 249.945 274.794 250.097L274.374 249.281C274.654 249.081 274.974 248.917 275.334 248.789C275.702 248.653 276.118 248.585 276.582 248.585C277.07 248.585 277.486 248.677 277.83 248.861C278.182 249.045 278.45 249.289 278.634 249.593C278.818 249.889 278.91 250.209 278.91 250.553C278.91 251.113 278.746 251.569 278.418 251.921C278.09 252.265 277.61 252.533 276.978 252.725C277.482 252.901 277.87 253.161 278.142 253.505C278.414 253.849 278.55 254.257 278.55 254.729C278.55 255.241 278.418 255.689 278.154 256.073C277.89 256.457 277.526 256.753 277.062 256.961C276.606 257.169 276.082 257.273 275.49 257.273C275.034 257.273 274.602 257.213 274.194 257.093C273.794 256.965 273.454 256.793 273.174 256.577L273.81 255.725C274.01 255.893 274.25 256.033 274.53 256.145C274.81 256.257 275.13 256.313 275.49 256.313C276.034 256.313 276.486 256.181 276.846 255.917C277.206 255.653 277.386 255.273 277.386 254.777C277.386 254.337 277.214 253.965 276.87 253.661C276.526 253.349 275.998 253.193 275.286 253.193H274.674Z" fill="white"/>
<path d="M291.349 256.761C290.872 256.761 290.458 256.699 290.106 256.574C289.754 256.442 289.453 256.284 289.204 256.101L289.655 255.276C289.86 255.43 290.099 255.566 290.37 255.683C290.641 255.8 290.971 255.859 291.36 255.859C291.844 255.859 292.225 255.731 292.504 255.474C292.79 255.217 292.933 254.898 292.933 254.517C292.933 254.246 292.86 254 292.713 253.78C292.566 253.553 292.339 253.369 292.031 253.23C291.73 253.091 291.338 253.021 290.854 253.021H290.238V252.218H290.81C291.243 252.218 291.598 252.152 291.877 252.02C292.163 251.888 292.376 251.716 292.515 251.503C292.654 251.29 292.724 251.067 292.724 250.832C292.724 250.487 292.592 250.209 292.328 249.996C292.071 249.783 291.752 249.677 291.371 249.677C291.026 249.677 290.718 249.736 290.447 249.853C290.183 249.963 289.967 250.088 289.798 250.227L289.391 249.446C289.611 249.299 289.893 249.156 290.238 249.017C290.583 248.87 290.986 248.797 291.448 248.797C291.932 248.797 292.343 248.885 292.68 249.061C293.017 249.237 293.274 249.472 293.45 249.765C293.633 250.051 293.725 250.363 293.725 250.7C293.725 251.133 293.615 251.496 293.395 251.789C293.182 252.082 292.878 252.324 292.482 252.515C292.944 252.691 293.303 252.951 293.56 253.296C293.824 253.633 293.956 254.029 293.956 254.484C293.956 254.865 293.861 255.232 293.67 255.584C293.487 255.929 293.201 256.211 292.812 256.431C292.431 256.651 291.943 256.761 291.349 256.761ZM298.385 256.761C297.527 256.761 296.874 256.413 296.427 255.716C295.979 255.012 295.756 254.029 295.756 252.768C295.756 251.499 295.983 250.52 296.438 249.831C296.9 249.142 297.556 248.797 298.407 248.797C299.265 248.797 299.917 249.145 300.365 249.842C300.812 250.539 301.036 251.521 301.036 252.79C301.036 254.059 300.805 255.038 300.343 255.727C299.888 256.416 299.235 256.761 298.385 256.761ZM298.396 255.859C298.726 255.859 299.008 255.764 299.243 255.573C299.485 255.375 299.668 255.052 299.793 254.605C299.925 254.158 299.991 253.556 299.991 252.801C299.991 251.789 299.848 251.019 299.562 250.491C299.283 249.963 298.894 249.699 298.396 249.699C298.066 249.699 297.78 249.798 297.538 249.996C297.303 250.187 297.12 250.506 296.988 250.953C296.863 251.393 296.801 251.994 296.801 252.757C296.801 253.769 296.94 254.539 297.219 255.067C297.505 255.595 297.897 255.859 298.396 255.859ZM304.54 257.069L303.88 256.651L308.687 248.489L309.347 248.907L304.54 257.069ZM303.979 253.659C303.371 253.659 302.905 253.446 302.582 253.021C302.267 252.596 302.109 252.002 302.109 251.239C302.109 250.476 302.271 249.89 302.593 249.479C302.923 249.061 303.389 248.852 303.99 248.852C304.599 248.852 305.065 249.061 305.387 249.479C305.71 249.89 305.871 250.476 305.871 251.239C305.871 251.994 305.706 252.588 305.376 253.021C305.054 253.446 304.588 253.659 303.979 253.659ZM303.99 252.922C304.298 252.922 304.537 252.797 304.705 252.548C304.874 252.299 304.958 251.862 304.958 251.239C304.958 250.696 304.874 250.286 304.705 250.007C304.537 249.721 304.295 249.578 303.979 249.578C303.686 249.578 303.451 249.703 303.275 249.952C303.107 250.194 303.022 250.623 303.022 251.239C303.022 251.789 303.107 252.207 303.275 252.493C303.444 252.779 303.682 252.922 303.99 252.922ZM309.281 256.695C308.673 256.695 308.207 256.482 307.884 256.057C307.569 255.632 307.411 255.038 307.411 254.275C307.411 253.512 307.573 252.926 307.895 252.515C308.225 252.097 308.691 251.888 309.292 251.888C309.901 251.888 310.367 252.097 310.689 252.515C311.012 252.926 311.173 253.512 311.173 254.275C311.173 255.03 311.008 255.624 310.678 256.057C310.356 256.482 309.89 256.695 309.281 256.695ZM309.292 255.958C309.6 255.958 309.839 255.833 310.007 255.584C310.176 255.335 310.26 254.898 310.26 254.275C310.26 253.732 310.176 253.322 310.007 253.043C309.839 252.757 309.597 252.614 309.281 252.614C308.988 252.614 308.753 252.739 308.577 252.988C308.409 253.23 308.324 253.659 308.324 254.275C308.324 254.825 308.409 255.243 308.577 255.529C308.746 255.815 308.984 255.958 309.292 255.958Z" fill="#999999"/>
<rect x="78.5" y="275" width="8" height="8" rx="4" fill="#CDD2FD"/>
<path d="M93.48 274.6H94.62L93.324 281.98H97.176L96.996 283H92.004L93.48 274.6ZM100.573 283.144C100.045 283.144 99.5774 283.032 99.1694 282.808C98.7694 282.576 98.4534 282.248 98.2214 281.824C97.9974 281.392 97.8854 280.884 97.8854 280.3C97.8854 279.636 98.0214 279.024 98.2934 278.464C98.5734 277.904 98.9654 277.456 99.4694 277.12C99.9814 276.784 100.577 276.616 101.257 276.616C101.721 276.616 102.113 276.704 102.433 276.88C102.761 277.056 103.013 277.284 103.189 277.564C103.365 277.844 103.453 278.144 103.453 278.464C103.453 278.904 103.349 279.268 103.141 279.556C102.933 279.844 102.665 280.068 102.337 280.228C102.009 280.38 101.653 280.488 101.269 280.552C100.893 280.616 100.533 280.648 100.189 280.648C99.9734 280.648 99.7574 280.64 99.5414 280.624C99.3334 280.6 99.1494 280.576 98.9894 280.552C99.0534 281.08 99.2414 281.484 99.5534 281.764C99.8654 282.044 100.265 282.184 100.753 282.184C101.153 282.184 101.509 282.132 101.821 282.028C102.133 281.924 102.397 281.82 102.613 281.716L102.709 282.676C102.469 282.788 102.165 282.896 101.797 283C101.429 283.096 101.021 283.144 100.573 283.144ZM101.173 277.528C100.797 277.528 100.457 277.624 100.153 277.816C99.8494 278 99.5974 278.256 99.3974 278.584C99.2054 278.904 99.0774 279.272 99.0134 279.688C99.1974 279.72 99.3814 279.748 99.5654 279.772C99.7574 279.788 99.9654 279.796 100.189 279.796C100.861 279.796 101.393 279.704 101.785 279.52C102.177 279.328 102.373 279.004 102.373 278.548C102.373 278.268 102.261 278.028 102.037 277.828C101.821 277.628 101.533 277.528 101.173 277.528ZM108.056 276.616C108.528 276.616 108.944 276.664 109.304 276.76C109.664 276.856 109.96 276.952 110.192 277.048L109.148 283.072C109.052 283.624 108.904 284.076 108.704 284.428C108.512 284.78 108.284 285.052 108.02 285.244C107.764 285.444 107.492 285.584 107.204 285.664C106.916 285.744 106.632 285.784 106.352 285.784C105.808 285.784 105.344 285.672 104.96 285.448C104.584 285.224 104.276 284.964 104.036 284.668L104.876 284.044C105.268 284.58 105.784 284.848 106.424 284.848C106.824 284.848 107.176 284.7 107.48 284.404C107.784 284.108 108 283.604 108.128 282.892L108.332 281.716C108.108 282.076 107.828 282.38 107.492 282.628C107.164 282.876 106.792 283 106.376 283C105.992 283 105.624 282.904 105.272 282.712C104.928 282.52 104.644 282.24 104.42 281.872C104.204 281.504 104.096 281.052 104.096 280.516C104.096 279.74 104.268 279.06 104.612 278.476C104.956 277.892 105.428 277.436 106.028 277.108C106.628 276.78 107.304 276.616 108.056 276.616ZM105.2 280.396C105.2 280.756 105.268 281.06 105.404 281.308C105.548 281.548 105.732 281.732 105.956 281.86C106.18 281.98 106.416 282.04 106.664 282.04C106.968 282.04 107.256 281.932 107.528 281.716C107.8 281.5 108.036 281.196 108.236 280.804C108.444 280.412 108.596 279.952 108.692 279.424L109.004 277.684C108.852 277.636 108.692 277.6 108.524 277.576C108.356 277.544 108.16 277.528 107.936 277.528C107.4 277.528 106.924 277.656 106.508 277.912C106.1 278.16 105.78 278.5 105.548 278.932C105.316 279.364 105.2 279.852 105.2 280.396ZM113.71 283.144C113.182 283.144 112.714 283.032 112.306 282.808C111.906 282.576 111.59 282.248 111.358 281.824C111.134 281.392 111.022 280.884 111.022 280.3C111.022 279.636 111.158 279.024 111.43 278.464C111.71 277.904 112.102 277.456 112.606 277.12C113.118 276.784 113.714 276.616 114.394 276.616C114.858 276.616 115.25 276.704 115.57 276.88C115.898 277.056 116.15 277.284 116.326 277.564C116.502 277.844 116.59 278.144 116.59 278.464C116.59 278.904 116.486 279.268 116.278 279.556C116.07 279.844 115.802 280.068 115.474 280.228C115.146 280.38 114.79 280.488 114.406 280.552C114.03 280.616 113.67 280.648 113.326 280.648C113.11 280.648 112.894 280.64 112.678 280.624C112.47 280.6 112.286 280.576 112.126 280.552C112.19 281.08 112.378 281.484 112.69 281.764C113.002 282.044 113.402 282.184 113.89 282.184C114.29 282.184 114.646 282.132 114.958 282.028C115.27 281.924 115.534 281.82 115.75 281.716L115.846 282.676C115.606 282.788 115.302 282.896 114.934 283C114.566 283.096 114.158 283.144 113.71 283.144ZM114.31 277.528C113.934 277.528 113.594 277.624 113.29 277.816C112.986 278 112.734 278.256 112.534 278.584C112.342 278.904 112.214 279.272 112.15 279.688C112.334 279.72 112.518 279.748 112.702 279.772C112.894 279.788 113.102 279.796 113.326 279.796C113.998 279.796 114.53 279.704 114.922 279.52C115.314 279.328 115.51 279.004 115.51 278.548C115.51 278.268 115.398 278.028 115.174 277.828C114.958 277.628 114.67 277.528 114.31 277.528ZM121.157 277.564C120.877 277.564 120.573 277.668 120.245 277.876C119.917 278.084 119.613 278.408 119.333 278.848C119.061 279.28 118.865 279.836 118.745 280.516L118.313 283H117.233L118.325 276.76H119.369L119.105 278.2C119.353 277.72 119.685 277.336 120.101 277.048C120.525 276.76 120.969 276.616 121.433 276.616C121.977 276.616 122.413 276.784 122.741 277.12C123.069 277.448 123.233 277.852 123.233 278.332C123.233 278.532 123.209 278.784 123.161 279.088L122.477 283H121.397L122.057 279.268C122.097 279.076 122.121 278.936 122.129 278.848C122.137 278.752 122.141 278.664 122.141 278.584C122.141 278.272 122.049 278.024 121.865 277.84C121.689 277.656 121.453 277.564 121.157 277.564ZM130.083 283.06C129.651 283.06 129.319 282.956 129.087 282.748C128.863 282.532 128.751 282.196 128.751 281.74C128.519 282.124 128.227 282.456 127.875 282.736C127.523 283.008 127.115 283.144 126.651 283.144C126.251 283.144 125.875 283.04 125.523 282.832C125.171 282.616 124.887 282.316 124.671 281.932C124.463 281.54 124.359 281.076 124.359 280.54C124.359 279.924 124.451 279.376 124.635 278.896C124.819 278.408 125.063 277.996 125.367 277.66C125.679 277.324 126.019 277.068 126.387 276.892C126.763 276.708 127.143 276.616 127.527 276.616C127.951 276.616 128.315 276.72 128.619 276.928C128.931 277.136 129.171 277.392 129.339 277.696L129.975 274.12H131.055L129.783 281.308C129.775 281.348 129.767 281.396 129.759 281.452C129.759 281.5 129.759 281.552 129.759 281.608C129.759 281.832 129.823 281.992 129.951 282.088C130.079 282.176 130.247 282.22 130.455 282.22L130.083 283.06ZM126.939 282.184C127.243 282.184 127.531 282.088 127.803 281.896C128.083 281.704 128.323 281.436 128.523 281.092C128.731 280.74 128.875 280.328 128.955 279.856L129.171 278.62C129.011 278.284 128.795 278.024 128.523 277.84C128.251 277.648 127.951 277.552 127.623 277.552C127.255 277.552 126.903 277.668 126.567 277.9C126.239 278.124 125.971 278.448 125.763 278.872C125.563 279.288 125.463 279.792 125.463 280.384C125.463 280.776 125.531 281.108 125.667 281.38C125.811 281.644 125.995 281.844 126.219 281.98C126.451 282.116 126.691 282.184 126.939 282.184ZM141.21 276.484C141.21 276.9 141.11 277.276 140.91 277.612C140.718 277.94 140.462 278.24 140.142 278.512C139.822 278.784 139.478 279.048 139.11 279.304C138.75 279.552 138.398 279.812 138.054 280.084C137.718 280.348 137.426 280.636 137.178 280.948C136.93 281.26 136.766 281.616 136.686 282.016H140.502L140.334 283H135.51C135.502 282.936 135.494 282.864 135.486 282.784C135.478 282.704 135.474 282.628 135.474 282.556C135.474 281.996 135.582 281.504 135.798 281.08C136.022 280.648 136.306 280.264 136.65 279.928C137.002 279.592 137.37 279.284 137.754 279.004C138.146 278.724 138.514 278.46 138.858 278.212C139.21 277.956 139.494 277.696 139.71 277.432C139.934 277.168 140.046 276.88 140.046 276.568C140.046 276.216 139.926 275.936 139.686 275.728C139.446 275.52 139.15 275.416 138.798 275.416C138.454 275.416 138.142 275.48 137.862 275.608C137.59 275.736 137.318 275.916 137.046 276.148L136.542 275.332C136.87 275.068 137.226 274.856 137.61 274.696C137.994 274.536 138.434 274.456 138.93 274.456C139.386 274.456 139.782 274.544 140.118 274.72C140.462 274.896 140.73 275.136 140.922 275.44C141.114 275.744 141.21 276.092 141.21 276.484Z" fill="white"/>
<path d="M153.218 282.5H154.185V274.75H153.223L151.161 276.232V277.252L153.132 275.824H153.218V282.5ZM159.104 282.683C160.845 282.683 161.844 281.211 161.844 278.638C161.844 276.071 160.829 274.567 159.104 274.567C157.37 274.567 156.354 276.065 156.354 278.622C156.354 281.2 157.359 282.683 159.104 282.683ZM159.104 281.839C157.96 281.839 157.327 280.695 157.327 278.622C157.327 276.576 157.971 275.416 159.104 275.416C160.238 275.416 160.872 276.565 160.872 278.622C160.872 280.701 160.249 281.839 159.104 281.839ZM166.296 276.479C166.296 275.383 165.614 274.615 164.647 274.615C163.681 274.615 162.993 275.389 162.993 276.479C162.993 277.575 163.681 278.348 164.647 278.348C165.614 278.348 166.296 277.575 166.296 276.479ZM164.647 277.661C164.169 277.661 163.853 277.193 163.853 276.479C163.853 275.765 164.164 275.303 164.647 275.303C165.131 275.303 165.437 275.754 165.437 276.479C165.437 277.188 165.12 277.661 164.647 277.661ZM164.562 282.5L167.22 278.864L170.228 274.75H169.25L166.533 278.461L163.573 282.5H164.562ZM170.781 280.765C170.781 279.669 170.099 278.901 169.132 278.901C168.166 278.901 167.478 279.675 167.478 280.765C167.478 281.861 168.166 282.634 169.132 282.634C170.099 282.634 170.781 281.861 170.781 280.765ZM169.132 281.947C168.654 281.947 168.337 281.479 168.337 280.765C168.337 280.051 168.649 279.589 169.132 279.589C169.616 279.589 169.922 280.04 169.922 280.765C169.922 281.474 169.605 281.947 169.132 281.947Z" fill="white"/>
<rect x="216.5" y="275" width="8" height="8" rx="4" fill="white"/>
<path d="M231.48 274.6H232.62L231.324 281.98H235.176L234.996 283H230.004L231.48 274.6ZM238.573 283.144C238.045 283.144 237.577 283.032 237.169 282.808C236.769 282.576 236.453 282.248 236.221 281.824C235.997 281.392 235.885 280.884 235.885 280.3C235.885 279.636 236.021 279.024 236.293 278.464C236.573 277.904 236.965 277.456 237.469 277.12C237.981 276.784 238.577 276.616 239.257 276.616C239.721 276.616 240.113 276.704 240.433 276.88C240.761 277.056 241.013 277.284 241.189 277.564C241.365 277.844 241.453 278.144 241.453 278.464C241.453 278.904 241.349 279.268 241.141 279.556C240.933 279.844 240.665 280.068 240.337 280.228C240.009 280.38 239.653 280.488 239.269 280.552C238.893 280.616 238.533 280.648 238.189 280.648C237.973 280.648 237.757 280.64 237.541 280.624C237.333 280.6 237.149 280.576 236.989 280.552C237.053 281.08 237.241 281.484 237.553 281.764C237.865 282.044 238.265 282.184 238.753 282.184C239.153 282.184 239.509 282.132 239.821 282.028C240.133 281.924 240.397 281.82 240.613 281.716L240.709 282.676C240.469 282.788 240.165 282.896 239.797 283C239.429 283.096 239.021 283.144 238.573 283.144ZM239.173 277.528C238.797 277.528 238.457 277.624 238.153 277.816C237.849 278 237.597 278.256 237.397 278.584C237.205 278.904 237.077 279.272 237.013 279.688C237.197 279.72 237.381 279.748 237.565 279.772C237.757 279.788 237.965 279.796 238.189 279.796C238.861 279.796 239.393 279.704 239.785 279.52C240.177 279.328 240.373 279.004 240.373 278.548C240.373 278.268 240.261 278.028 240.037 277.828C239.821 277.628 239.533 277.528 239.173 277.528ZM246.056 276.616C246.528 276.616 246.944 276.664 247.304 276.76C247.664 276.856 247.96 276.952 248.192 277.048L247.148 283.072C247.052 283.624 246.904 284.076 246.704 284.428C246.512 284.78 246.284 285.052 246.02 285.244C245.764 285.444 245.492 285.584 245.204 285.664C244.916 285.744 244.632 285.784 244.352 285.784C243.808 285.784 243.344 285.672 242.96 285.448C242.584 285.224 242.276 284.964 242.036 284.668L242.876 284.044C243.268 284.58 243.784 284.848 244.424 284.848C244.824 284.848 245.176 284.7 245.48 284.404C245.784 284.108 246 283.604 246.128 282.892L246.332 281.716C246.108 282.076 245.828 282.38 245.492 282.628C245.164 282.876 244.792 283 244.376 283C243.992 283 243.624 282.904 243.272 282.712C242.928 282.52 242.644 282.24 242.42 281.872C242.204 281.504 242.096 281.052 242.096 280.516C242.096 279.74 242.268 279.06 242.612 278.476C242.956 277.892 243.428 277.436 244.028 277.108C244.628 276.78 245.304 276.616 246.056 276.616ZM243.2 280.396C243.2 280.756 243.268 281.06 243.404 281.308C243.548 281.548 243.732 281.732 243.956 281.86C244.18 281.98 244.416 282.04 244.664 282.04C244.968 282.04 245.256 281.932 245.528 281.716C245.8 281.5 246.036 281.196 246.236 280.804C246.444 280.412 246.596 279.952 246.692 279.424L247.004 277.684C246.852 277.636 246.692 277.6 246.524 277.576C246.356 277.544 246.16 277.528 245.936 277.528C245.4 277.528 244.924 277.656 244.508 277.912C244.1 278.16 243.78 278.5 243.548 278.932C243.316 279.364 243.2 279.852 243.2 280.396ZM251.71 283.144C251.182 283.144 250.714 283.032 250.306 282.808C249.906 282.576 249.59 282.248 249.358 281.824C249.134 281.392 249.022 280.884 249.022 280.3C249.022 279.636 249.158 279.024 249.43 278.464C249.71 277.904 250.102 277.456 250.606 277.12C251.118 276.784 251.714 276.616 252.394 276.616C252.858 276.616 253.25 276.704 253.57 276.88C253.898 277.056 254.15 277.284 254.326 277.564C254.502 277.844 254.59 278.144 254.59 278.464C254.59 278.904 254.486 279.268 254.278 279.556C254.07 279.844 253.802 280.068 253.474 280.228C253.146 280.38 252.79 280.488 252.406 280.552C252.03 280.616 251.67 280.648 251.326 280.648C251.11 280.648 250.894 280.64 250.678 280.624C250.47 280.6 250.286 280.576 250.126 280.552C250.19 281.08 250.378 281.484 250.69 281.764C251.002 282.044 251.402 282.184 251.89 282.184C252.29 282.184 252.646 282.132 252.958 282.028C253.27 281.924 253.534 281.82 253.75 281.716L253.846 282.676C253.606 282.788 253.302 282.896 252.934 283C252.566 283.096 252.158 283.144 251.71 283.144ZM252.31 277.528C251.934 277.528 251.594 277.624 251.29 277.816C250.986 278 250.734 278.256 250.534 278.584C250.342 278.904 250.214 279.272 250.15 279.688C250.334 279.72 250.518 279.748 250.702 279.772C250.894 279.788 251.102 279.796 251.326 279.796C251.998 279.796 252.53 279.704 252.922 279.52C253.314 279.328 253.51 279.004 253.51 278.548C253.51 278.268 253.398 278.028 253.174 277.828C252.958 277.628 252.67 277.528 252.31 277.528ZM259.157 277.564C258.877 277.564 258.573 277.668 258.245 277.876C257.917 278.084 257.613 278.408 257.333 278.848C257.061 279.28 256.865 279.836 256.745 280.516L256.313 283H255.233L256.325 276.76H257.369L257.105 278.2C257.353 277.72 257.685 277.336 258.101 277.048C258.525 276.76 258.969 276.616 259.433 276.616C259.977 276.616 260.413 276.784 260.741 277.12C261.069 277.448 261.233 277.852 261.233 278.332C261.233 278.532 261.209 278.784 261.161 279.088L260.477 283H259.397L260.057 279.268C260.097 279.076 260.121 278.936 260.129 278.848C260.137 278.752 260.141 278.664 260.141 278.584C260.141 278.272 260.049 278.024 259.865 277.84C259.689 277.656 259.453 277.564 259.157 277.564ZM268.083 283.06C267.651 283.06 267.319 282.956 267.087 282.748C266.863 282.532 266.751 282.196 266.751 281.74C266.519 282.124 266.227 282.456 265.875 282.736C265.523 283.008 265.115 283.144 264.651 283.144C264.251 283.144 263.875 283.04 263.523 282.832C263.171 282.616 262.887 282.316 262.671 281.932C262.463 281.54 262.359 281.076 262.359 280.54C262.359 279.924 262.451 279.376 262.635 278.896C262.819 278.408 263.063 277.996 263.367 277.66C263.679 277.324 264.019 277.068 264.387 276.892C264.763 276.708 265.143 276.616 265.527 276.616C265.951 276.616 266.315 276.72 266.619 276.928C266.931 277.136 267.171 277.392 267.339 277.696L267.975 274.12H269.055L267.783 281.308C267.775 281.348 267.767 281.396 267.759 281.452C267.759 281.5 267.759 281.552 267.759 281.608C267.759 281.832 267.823 281.992 267.951 282.088C268.079 282.176 268.247 282.22 268.455 282.22L268.083 283.06ZM264.939 282.184C265.243 282.184 265.531 282.088 265.803 281.896C266.083 281.704 266.323 281.436 266.523 281.092C266.731 280.74 266.875 280.328 266.955 279.856L267.171 278.62C267.011 278.284 266.795 278.024 266.523 277.84C266.251 277.648 265.951 277.552 265.623 277.552C265.255 277.552 264.903 277.668 264.567 277.9C264.239 278.124 263.971 278.448 263.763 278.872C263.563 279.288 263.463 279.792 263.463 280.384C263.463 280.776 263.531 281.108 263.667 281.38C263.811 281.644 263.995 281.844 264.219 281.98C264.451 282.116 264.691 282.184 264.939 282.184ZM277.938 281.188L277.626 283H276.57L276.882 281.188H273.306L273.45 280.348L276.966 274.516L277.89 274.912L274.71 280.228H277.05L277.482 277.84H278.538L278.106 280.228H279.138L278.97 281.188H277.938Z" fill="white"/>
<path d="M290.468 282.5C290.446 282.368 290.435 282.232 290.435 282.093C290.435 281.616 290.516 281.191 290.677 280.817C290.846 280.436 291.062 280.091 291.326 279.783C291.59 279.468 291.869 279.178 292.162 278.914C292.463 278.643 292.741 278.386 292.998 278.144C293.262 277.895 293.478 277.645 293.647 277.396C293.816 277.147 293.9 276.886 293.9 276.615C293.9 276.307 293.786 276.054 293.559 275.856C293.332 275.651 293.038 275.548 292.679 275.548C292.371 275.548 292.089 275.61 291.832 275.735C291.583 275.852 291.348 276.014 291.128 276.219L290.578 275.548C290.871 275.284 291.194 275.071 291.546 274.91C291.905 274.749 292.32 274.668 292.789 274.668C293.222 274.668 293.599 274.752 293.922 274.921C294.245 275.082 294.494 275.306 294.67 275.592C294.853 275.878 294.945 276.197 294.945 276.549C294.945 276.901 294.868 277.227 294.714 277.528C294.56 277.829 294.362 278.111 294.12 278.375C293.878 278.639 293.618 278.896 293.339 279.145C293.06 279.387 292.793 279.636 292.536 279.893C292.279 280.15 292.059 280.417 291.876 280.696C291.7 280.975 291.59 281.275 291.546 281.598H294.934V282.5H290.468ZM299.385 282.632C298.527 282.632 297.874 282.284 297.427 281.587C296.979 280.883 296.756 279.9 296.756 278.639C296.756 277.37 296.983 276.391 297.438 275.702C297.9 275.013 298.556 274.668 299.407 274.668C300.265 274.668 300.917 275.016 301.365 275.713C301.812 276.41 302.036 277.392 302.036 278.661C302.036 279.93 301.805 280.909 301.343 281.598C300.888 282.287 300.235 282.632 299.385 282.632ZM299.396 281.73C299.726 281.73 300.008 281.635 300.243 281.444C300.485 281.246 300.668 280.923 300.793 280.476C300.925 280.029 300.991 279.427 300.991 278.672C300.991 277.66 300.848 276.89 300.562 276.362C300.283 275.834 299.894 275.57 299.396 275.57C299.066 275.57 298.78 275.669 298.538 275.867C298.303 276.058 298.12 276.377 297.988 276.824C297.863 277.264 297.801 277.865 297.801 278.628C297.801 279.64 297.94 280.41 298.219 280.938C298.505 281.466 298.897 281.73 299.396 281.73ZM305.54 282.94L304.88 282.522L309.687 274.36L310.347 274.778L305.54 282.94ZM304.979 279.53C304.371 279.53 303.905 279.317 303.582 278.892C303.267 278.467 303.109 277.873 303.109 277.11C303.109 276.347 303.271 275.761 303.593 275.35C303.923 274.932 304.389 274.723 304.99 274.723C305.599 274.723 306.065 274.932 306.387 275.35C306.71 275.761 306.871 276.347 306.871 277.11C306.871 277.865 306.706 278.459 306.376 278.892C306.054 279.317 305.588 279.53 304.979 279.53ZM304.99 278.793C305.298 278.793 305.537 278.668 305.705 278.419C305.874 278.17 305.958 277.733 305.958 277.11C305.958 276.567 305.874 276.157 305.705 275.878C305.537 275.592 305.295 275.449 304.979 275.449C304.686 275.449 304.451 275.574 304.275 275.823C304.107 276.065 304.022 276.494 304.022 277.11C304.022 277.66 304.107 278.078 304.275 278.364C304.444 278.65 304.682 278.793 304.99 278.793ZM310.281 282.566C309.673 282.566 309.207 282.353 308.884 281.928C308.569 281.503 308.411 280.909 308.411 280.146C308.411 279.383 308.573 278.797 308.895 278.386C309.225 277.968 309.691 277.759 310.292 277.759C310.901 277.759 311.367 277.968 311.689 278.386C312.012 278.797 312.173 279.383 312.173 280.146C312.173 280.901 312.008 281.495 311.678 281.928C311.356 282.353 310.89 282.566 310.281 282.566ZM310.292 281.829C310.6 281.829 310.839 281.704 311.007 281.455C311.176 281.206 311.26 280.769 311.26 280.146C311.26 279.603 311.176 279.193 311.007 278.914C310.839 278.628 310.597 278.485 310.281 278.485C309.988 278.485 309.753 278.61 309.577 278.859C309.409 279.101 309.324 279.53 309.324 280.146C309.324 280.696 309.409 281.114 309.577 281.4C309.746 281.686 309.984 281.829 310.292 281.829Z" fill="#999999"/>
<path d="M181.185 149.8H182.23L181.042 156.565H184.573L184.408 157.5H179.832L181.185 149.8ZM184.67 157.093L188.894 149.8H190.071L191.754 157.379L190.753 157.61L190.291 155.41H186.727L185.506 157.588L184.67 157.093ZM187.222 154.53H190.104L189.323 150.823L187.222 154.53ZM194.031 149.888C194.369 149.822 194.695 149.771 195.01 149.734C195.326 149.69 195.685 149.668 196.088 149.668C196.682 149.668 197.17 149.76 197.551 149.943C197.94 150.119 198.23 150.354 198.42 150.647C198.611 150.933 198.706 151.241 198.706 151.571C198.706 152.07 198.567 152.477 198.288 152.792C198.01 153.1 197.599 153.335 197.056 153.496C197.467 153.65 197.804 153.87 198.068 154.156C198.332 154.442 198.464 154.812 198.464 155.267C198.464 155.795 198.307 156.235 197.991 156.587C197.676 156.939 197.258 157.203 196.737 157.379C196.224 157.548 195.667 157.632 195.065 157.632C194.545 157.632 194.09 157.592 193.701 157.511C193.313 157.438 192.99 157.361 192.733 157.28L194.031 149.888ZM196.044 150.493C195.817 150.493 195.615 150.5 195.439 150.515C195.263 150.53 195.102 150.552 194.955 150.581L194.504 153.122H195.582C196.294 153.122 196.822 152.983 197.166 152.704C197.511 152.418 197.683 152.088 197.683 151.714C197.683 151.369 197.544 151.08 197.265 150.845C196.994 150.61 196.587 150.493 196.044 150.493ZM194.361 153.936L193.899 156.609C194.288 156.712 194.702 156.763 195.142 156.763C195.861 156.763 196.415 156.627 196.803 156.356C197.199 156.077 197.397 155.725 197.397 155.3C197.397 155.051 197.328 154.823 197.188 154.618C197.049 154.413 196.825 154.248 196.517 154.123C196.217 153.998 195.817 153.936 195.318 153.936H194.361ZM200.876 149.8H205.441L205.287 150.702H201.756L201.349 153.045H204.374L204.22 153.925H201.195L200.722 156.598H204.242L204.088 157.5H199.523L200.876 149.8ZM206.837 149.8H207.882L206.694 156.565H210.225L210.06 157.5H205.484L206.837 149.8Z" fill="#999999"/>
<path d="M180.737 142.5L184.879 130.522H182.596L179.608 140.001H179.467L176.454 130.522H174.088L178.271 142.5H180.737ZM188.872 141.031C187.958 141.031 187.303 140.574 187.303 139.811C187.303 139.072 187.842 138.657 188.996 138.582L191.046 138.449V139.171C191.046 140.226 190.117 141.031 188.872 141.031ZM188.266 142.649C189.453 142.649 190.449 142.135 190.955 141.255H191.096V142.5H193.08V136.299C193.08 134.374 191.769 133.236 189.436 133.236C187.278 133.236 185.775 134.257 185.609 135.859H187.552C187.743 135.245 188.39 134.913 189.336 134.913C190.449 134.913 191.046 135.411 191.046 136.299V137.063L188.706 137.204C186.498 137.337 185.261 138.283 185.261 139.927C185.261 141.587 186.514 142.649 188.266 142.649ZM195.645 142.5H197.704V129.908H195.645V142.5ZM208.212 133.419H206.154V138.707C206.154 140.051 205.423 140.873 204.087 140.873C202.858 140.873 202.286 140.192 202.286 138.806V133.419H200.227V139.321C200.227 141.446 201.389 142.683 203.373 142.683C204.759 142.683 205.647 142.093 206.087 141.056H206.229V142.5H208.212V133.419ZM214.546 134.872C215.783 134.872 216.596 135.735 216.638 137.08H212.363C212.454 135.751 213.317 134.872 214.546 134.872ZM216.654 140.001C216.355 140.674 215.65 141.047 214.629 141.047C213.276 141.047 212.404 140.101 212.354 138.59V138.482H218.696V137.818C218.696 134.955 217.144 133.236 214.554 133.236C211.923 133.236 210.288 135.071 210.288 137.993C210.288 140.915 211.898 142.683 214.571 142.683C216.712 142.683 218.215 141.653 218.605 140.001H216.654Z" fill="white"/>
<path d="M270.5 143C270.5 158.838 265.486 174.27 256.176 187.084L250.109 182.676C258.487 171.143 263 157.255 263 143H270.5Z" fill="#CDD2FD"/>
<path opacity="0.7" d="M256.176 187.084C246.867 199.897 233.74 209.435 218.676 214.329C203.613 219.224 187.387 219.224 172.324 214.329L174.641 207.196C188.198 211.601 202.802 211.601 216.359 207.196C229.916 202.791 241.73 194.208 250.109 182.676L256.176 187.084Z" fill="white"/>
<path d="M172.324 214.329C157.26 209.435 144.133 199.897 134.824 187.084C125.514 174.27 120.5 158.838 120.5 143C120.5 127.162 125.514 111.73 134.824 98.9161C144.133 86.1025 157.26 76.5651 172.324 71.6708L174.641 78.8037C161.084 83.2086 149.27 91.7923 140.891 103.325C132.513 114.857 128 128.745 128 143C128 157.255 132.513 171.143 140.891 182.676C149.27 194.208 161.084 202.791 174.641 207.196L172.324 214.329Z" fill="#6979F8"/>
<path d="M172.324 71.6708C183.58 68.0133 195.543 67.0719 207.233 68.9234C218.923 70.7749 230.009 75.3668 239.584 82.3237C249.159 89.2806 256.952 98.4049 262.325 108.951C267.699 119.496 270.5 131.164 270.5 143H263C263 132.348 260.479 121.847 255.643 112.356C250.807 102.864 243.793 94.6525 235.175 88.3913C226.558 82.1301 216.58 77.9974 206.059 76.331C195.538 74.6647 184.772 75.512 174.641 78.8037L172.324 71.6708Z" fill="#9BA6FA"/>
<path d="M331 47L337 41L331 35" stroke="#999999" stroke-linecap="round" stroke-linejoin="round"/>
<line x1="310.598" y1="26" x2="310.598" y2="56" stroke="#E4E4E4" stroke-opacity="0.6" stroke-width="0.5"/>
<path d="M60 47L54 41L60 35" stroke="#999999" stroke-linecap="round" stroke-linejoin="round"/>
<line x1="81.25" y1="26" x2="81.25" y2="56" stroke="#E4E4E4" stroke-opacity="0.6" stroke-width="0.5"/>
<path d="M185.435 46V41.8691L189.141 35.4312H187.068L184.556 39.9502H184.431L181.912 35.4312H179.839L183.545 41.8691V46H185.435ZM192.774 39.269C193.865 39.269 194.583 40.0308 194.619 41.2173H190.847C190.928 40.0454 191.69 39.269 192.774 39.269ZM194.634 43.7954C194.37 44.3887 193.748 44.7183 192.847 44.7183C191.653 44.7183 190.884 43.8833 190.84 42.5503V42.4551H196.436V41.8691C196.436 39.3423 195.066 37.8262 192.781 37.8262C190.459 37.8262 189.016 39.4448 189.016 42.0229C189.016 44.6011 190.437 46.1611 192.796 46.1611C194.685 46.1611 196.011 45.2529 196.355 43.7954H194.634ZM200.999 44.7036C200.193 44.7036 199.614 44.3008 199.614 43.627C199.614 42.9751 200.09 42.6089 201.109 42.543L202.918 42.4258V43.063C202.918 43.9932 202.097 44.7036 200.999 44.7036ZM200.464 46.1318C201.511 46.1318 202.39 45.6777 202.837 44.9014H202.962V46H204.712V40.5288C204.712 38.8296 203.555 37.8262 201.497 37.8262C199.592 37.8262 198.267 38.7271 198.12 40.1406H199.834C200.003 39.5986 200.574 39.3057 201.409 39.3057C202.39 39.3057 202.918 39.7451 202.918 40.5288V41.2026L200.852 41.3271C198.904 41.4443 197.813 42.2793 197.813 43.7295C197.813 45.1943 198.919 46.1318 200.464 46.1318ZM206.902 46H208.718V41.3711C208.718 40.2505 209.539 39.5181 210.718 39.5181C211.026 39.5181 211.509 39.5693 211.648 39.6206V37.936C211.48 37.8848 211.157 37.8555 210.894 37.8555C209.861 37.8555 208.997 38.4414 208.777 39.2324H208.652V37.9873H206.902V46Z" fill="white"/>
<rect x="32.75" y="8.75" width="325.5" height="310.5" stroke="white" stroke-width="0.5"/>
</g>
<defs>
<filter id="filter0_dd_0_437" x="0.5" y="0.5" width="390" height="375" filterUnits="userSpaceOnUse" color-interpolation-filters="sRGB">
<feFlood flood-opacity="0" result="BackgroundImageFix"/>
<feColorMatrix in="SourceAlpha" type="matrix" values="0 0 0 0 0 0 0 0 0 0 0 0 0 0 0 0 0 0 127 0" result="hardAlpha"/>
<feOffset dy="24"/>
<feGaussianBlur stdDeviation="16"/>
<feColorMatrix type="matrix" values="0 0 0 0 0.196487 0 0 0 0 0.196487 0 0 0 0 0.279476 0 0 0 0.08 0"/>
<feBlend mode="multiply" in2="BackgroundImageFix" result="effect1_dropShadow_0_437"/>
<feColorMatrix in="SourceAlpha" type="matrix" values="0 0 0 0 0 0 0 0 0 0 0 0 0 0 0 0 0 0 127 0" result="hardAlpha"/>
<feOffset dy="16"/>
<feGaussianBlur stdDeviation="8"/>
<feColorMatrix type="matrix" values="0 0 0 0 0.196487 0 0 0 0 0.196487 0 0 0 0 0.279476 0 0 0 0.08 0"/>
<feBlend mode="multiply" in2="effect1_dropShadow_0_437" result="effect2_dropShadow_0_437"/>
<feBlend mode="normal" in="SourceGraphic" in2="effect2_dropShadow_0_437" result="shape"/>
</filter>
</defs>
</svg>
