<svg width="391" height="376" viewBox="0 0 391 376" fill="none" xmlns="http://www.w3.org/2000/svg">
<g filter="url(#filter0_dd_0_476)">
<rect x="33.0001" y="9" width="325" height="310" rx="10" fill="black"/>
<path d="M240.708 287V279.25H239.586L236.932 285.663H236.846L234.193 279.25H233.07V287H233.973V281.081H234.037L236.481 286.946H237.297L239.741 281.081H239.806V287H240.708ZM244.35 286.291C243.678 286.291 243.179 285.947 243.179 285.356C243.179 284.776 243.566 284.47 244.446 284.411L246.004 284.309V284.841C246.004 285.668 245.3 286.291 244.35 286.291ZM244.178 287.102C244.951 287.102 245.585 286.764 245.961 286.146H246.047V287H246.928V283.036C246.928 281.833 246.138 281.108 244.726 281.108C243.49 281.108 242.577 281.72 242.454 282.649H243.388C243.517 282.193 244.001 281.93 244.693 281.93C245.558 281.93 246.004 282.322 246.004 283.036V283.562L244.334 283.665C242.985 283.745 242.223 284.341 242.223 285.378C242.223 286.436 243.055 287.102 244.178 287.102ZM248.915 289.095C249.941 289.095 250.403 288.697 250.897 287.354L253.158 281.21H252.175L250.591 285.974H250.505L248.915 281.21H247.916L250.059 287.005L249.952 287.349C249.71 288.047 249.42 288.3 248.888 288.3C248.759 288.3 248.614 288.294 248.502 288.273V289.062C248.63 289.084 248.792 289.095 248.915 289.095Z" fill="#999999"/>
<path d="M190.874 287H191.889L189.032 279.25H188.076L185.218 287H186.234L187.012 284.782H190.095L190.874 287ZM188.511 280.501H188.597L189.811 283.96H187.297L188.511 280.501ZM195.95 281.108C195.16 281.108 194.467 281.511 194.097 282.177H194.011V281.21H193.13V288.934H194.054V286.13H194.14C194.457 286.742 195.123 287.102 195.95 287.102C197.422 287.102 198.383 285.915 198.383 284.105C198.383 282.284 197.427 281.108 195.95 281.108ZM195.73 286.27C194.688 286.27 194.027 285.432 194.027 284.105C194.027 282.773 194.688 281.94 195.735 281.94C196.793 281.94 197.427 282.751 197.427 284.105C197.427 285.458 196.793 286.27 195.73 286.27ZM199.833 287H200.757V283.412C200.757 282.596 201.396 282.005 202.277 282.005C202.46 282.005 202.793 282.037 202.868 282.059V281.135C202.75 281.119 202.556 281.108 202.406 281.108C201.638 281.108 200.972 281.505 200.8 282.069H200.714V281.21H199.833V287Z" fill="#999999"/>
<path d="M144.887 287V279.25H143.764L141.111 285.663H141.025L138.372 279.25H137.249V287H138.151V281.081H138.216L140.66 286.946H141.476L143.92 281.081H143.984V287H144.887ZM148.528 286.291C147.857 286.291 147.358 285.947 147.358 285.356C147.358 284.776 147.744 284.47 148.625 284.411L150.183 284.309V284.841C150.183 285.668 149.479 286.291 148.528 286.291ZM148.357 287.102C149.13 287.102 149.764 286.764 150.14 286.146H150.226V287H151.107V283.036C151.107 281.833 150.317 281.108 148.904 281.108C147.669 281.108 146.756 281.72 146.632 282.649H147.567C147.696 282.193 148.179 281.93 148.872 281.93C149.737 281.93 150.183 282.322 150.183 283.036V283.562L148.512 283.665C147.164 283.745 146.401 284.341 146.401 285.378C146.401 286.436 147.234 287.102 148.357 287.102ZM152.815 287H153.738V283.412C153.738 282.596 154.378 282.005 155.258 282.005C155.441 282.005 155.774 282.037 155.849 282.059V281.135C155.731 281.119 155.538 281.108 155.387 281.108C154.619 281.108 153.953 281.505 153.781 282.069H153.695V281.21H152.815V287Z" fill="#999999"/>
<path d="M90.1818 287V283.643H93.6139V282.784H90.1818V280.12H93.92V279.25H89.215V287H90.1818ZM97.7013 281.924C98.6198 281.924 99.2321 282.601 99.2535 283.627H96.0631C96.1329 282.601 96.7775 281.924 97.7013 281.924ZM99.2267 285.501C98.985 286.012 98.4801 286.286 97.7335 286.286C96.7506 286.286 96.1115 285.561 96.0631 284.417V284.374H100.226V284.019C100.226 282.22 99.275 281.108 97.712 281.108C96.1222 281.108 95.1017 282.29 95.1017 284.11C95.1017 285.942 96.1061 287.102 97.712 287.102C98.9796 287.102 99.8712 286.495 100.151 285.501H99.2267ZM104.555 287.102C106.021 287.102 106.983 285.915 106.983 284.105C106.983 282.284 106.026 281.108 104.555 281.108C103.76 281.108 103.056 281.5 102.739 282.123H102.653V278.911H101.73V287H102.61V286.076H102.696C103.062 286.721 103.749 287.102 104.555 287.102ZM104.34 281.94C105.398 281.94 106.026 282.751 106.026 284.105C106.026 285.458 105.398 286.27 104.34 286.27C103.287 286.27 102.632 285.442 102.632 284.105C102.632 282.768 103.287 281.94 104.34 281.94Z" fill="#999999"/>
<path d="M282.684 285.19C282.684 286.377 283.597 287.183 284.897 287.183C286.299 287.183 287.153 286.318 287.153 284.841V279.25H286.186V284.835C286.186 285.786 285.719 286.291 284.892 286.291C284.161 286.291 283.667 285.84 283.646 285.19H282.684ZM293.695 281.21H292.771V284.637C292.771 285.652 292.213 286.259 291.192 286.259C290.268 286.259 289.881 285.775 289.881 284.733V281.21H288.958V284.959C288.958 286.329 289.634 287.102 290.934 287.102C291.82 287.102 292.438 286.737 292.728 286.092H292.814V287H293.695V281.21ZM295.435 287H296.359V283.573C296.359 282.558 296.955 281.94 297.879 281.94C298.803 281.94 299.243 282.435 299.243 283.477V287H300.167V283.251C300.167 281.876 299.442 281.108 298.142 281.108C297.256 281.108 296.692 281.484 296.402 282.123H296.316V281.21H295.435V287Z" fill="#999999"/>
<path d="M331.313 285.19C331.313 286.377 332.226 287.183 333.526 287.183C334.928 287.183 335.782 286.318 335.782 284.841V279.25H334.815V284.835C334.815 285.786 334.348 286.291 333.521 286.291C332.79 286.291 332.296 285.84 332.275 285.19H331.313ZM342.324 281.21H341.4V284.637C341.4 285.652 340.842 286.259 339.821 286.259C338.897 286.259 338.51 285.775 338.51 284.733V281.21H337.587V284.959C337.587 286.329 338.263 287.102 339.563 287.102C340.449 287.102 341.067 286.737 341.357 286.092H341.443V287H342.324V281.21ZM344.118 287H345.042V278.911H344.118V287Z" fill="#999999"/>
<path d="M41.3479 285.19C41.3479 286.377 42.261 287.183 43.5608 287.183C44.9626 287.183 45.8167 286.318 45.8167 284.841V279.25H44.8499V284.835C44.8499 285.786 44.3826 286.291 43.5554 286.291C42.825 286.291 42.3308 285.84 42.3093 285.19H41.3479ZM49.4583 286.291C48.7869 286.291 48.2874 285.947 48.2874 285.356C48.2874 284.776 48.6741 284.47 49.5549 284.411L51.1125 284.309V284.841C51.1125 285.668 50.4089 286.291 49.4583 286.291ZM49.2864 287.102C50.0598 287.102 50.6936 286.764 51.0696 286.146H51.1555V287H52.0364V283.036C52.0364 281.833 51.2468 281.108 49.8342 281.108C48.5989 281.108 47.6858 281.72 47.5623 282.649H48.4968C48.6257 282.193 49.1091 281.93 49.802 281.93C50.6667 281.93 51.1125 282.322 51.1125 283.036V283.562L49.4421 283.665C48.094 283.745 47.3313 284.341 47.3313 285.378C47.3313 286.436 48.1638 287.102 49.2864 287.102ZM53.7444 287H54.6682V283.573C54.6682 282.558 55.2644 281.94 56.1882 281.94C57.1121 281.94 57.5525 282.435 57.5525 283.477V287H58.4763V283.251C58.4763 281.876 57.7512 281.108 56.4514 281.108C55.5652 281.108 55.0012 281.484 54.7112 282.123H54.6252V281.21H53.7444V287Z" fill="#999999"/>
<path d="M114.16 231.589C73.7603 231.589 73.7603 224.861 33 224.861V258.5H114.16H195.32H276.84H358V196.028C317.24 196.028 317.24 221.978 276.84 221.978C236.08 221.978 236.08 178.247 195.32 178.247C154.92 178.247 154.92 231.589 114.16 231.589Z" fill="url(#paint0_linear_0_476)"/>
<path d="M114.16 158.063C73.7603 158.063 73.7603 219.094 33 219.094V224.861C73.7603 224.861 73.7603 231.589 114.16 231.589C154.92 231.589 154.92 178.247 195.32 178.247C236.08 178.247 236.08 221.978 276.84 221.978C317.24 221.978 317.24 196.028 358 196.028V102.319C317.24 102.319 313.741 178.247 273.342 178.247C232.581 178.247 236.08 96.552 195.32 96.552C154.92 96.552 154.92 158.063 114.16 158.063Z" fill="url(#paint1_linear_0_476)"/>
<path d="M241.403 258.19L241.403 98.3036" stroke="#E4E4E4" stroke-opacity="0.2" stroke-linecap="square"/>
<path d="M290.606 258.19L290.606 98.3036" stroke="#E4E4E4" stroke-opacity="0.2" stroke-linecap="square"/>
<path d="M339.908 258.19L339.908 98.3036" stroke="#E4E4E4" stroke-opacity="0.2" stroke-linecap="square"/>
<path d="M193.825 258.19L193.825 98.3036" stroke="#E4E4E4" stroke-opacity="0.2" stroke-linecap="square"/>
<path d="M146.247 258.19L146.247 98.3036" stroke="#E4E4E4" stroke-opacity="0.2" stroke-linecap="square"/>
<path d="M98.6697 258.19L98.6697 98.3036" stroke="#E4E4E4" stroke-opacity="0.2" stroke-linecap="square"/>
<path d="M51.092 258.19L51.092 98.3036" stroke="#E4E4E4" stroke-opacity="0.2" stroke-linecap="square"/>
<path d="M57.5452 164.94V164.413C58.6467 164.323 59.2874 163.737 59.2874 162.811C59.2874 162.03 58.8459 161.553 57.8811 161.296L57.5452 161.214V159.303C58.1194 159.374 58.5061 159.741 58.5217 160.229H59.1858C59.1584 159.382 58.5139 158.78 57.5452 158.698V158.155H57.0217V158.702C56.0256 158.8 55.4084 159.385 55.4084 160.237C55.4084 160.956 55.8694 161.471 56.7092 161.694L57.0217 161.78V163.811C56.3811 163.733 55.9827 163.385 55.9397 162.862H55.2717C55.2756 163.725 55.9631 164.339 57.0217 164.417V164.94H57.5452ZM58.6116 162.866C58.6116 163.44 58.2249 163.788 57.5452 163.823V161.885C58.2795 162.042 58.6116 162.346 58.6116 162.866ZM56.0803 160.198C56.0803 159.71 56.4749 159.335 57.0217 159.303V161.1C56.4045 160.971 56.0803 160.659 56.0803 160.198ZM60.467 160.354V160.358H61.1467V160.354C61.1467 159.69 61.592 159.249 62.2522 159.249C62.8733 159.249 63.3538 159.682 63.3538 160.245C63.3538 160.698 63.178 161.003 62.4514 161.792L60.5022 163.921V164.405H64.1506V163.772H61.51V163.71L62.8655 162.253C63.7913 161.26 64.0569 160.803 64.0569 160.218C64.0569 159.323 63.2834 158.635 62.2717 158.635C61.2249 158.635 60.467 159.354 60.467 160.354ZM66.4905 161.807H67.2053C68.0061 161.807 68.5022 162.214 68.5022 162.866C68.5022 163.483 67.9749 163.925 67.2327 163.925C66.5061 163.925 65.9983 163.538 65.9358 162.936H65.2561C65.3069 163.901 66.0959 164.538 67.2405 164.538C68.3538 164.538 69.2249 163.815 69.2249 162.885C69.2249 162.116 68.76 161.585 67.9944 161.487V161.425C68.6116 161.276 68.9827 160.784 68.9827 160.112C68.9827 159.292 68.1975 158.635 67.2131 158.635C66.1389 158.635 65.4397 159.237 65.3694 160.214H66.053C66.1116 159.608 66.5374 159.249 67.1858 159.249C67.8342 159.249 68.2678 159.632 68.2678 160.206C68.2678 160.792 67.8147 161.206 67.1741 161.206H66.4905V161.807ZM72.2483 164.538C73.5139 164.538 74.2405 163.468 74.2405 161.596C74.2405 159.729 73.5022 158.635 72.2483 158.635C70.9866 158.635 70.2483 159.725 70.2483 161.585C70.2483 163.46 70.9788 164.538 72.2483 164.538ZM72.2483 163.925C71.4163 163.925 70.9553 163.093 70.9553 161.585C70.9553 160.096 71.4241 159.253 72.2483 159.253C73.0725 159.253 73.5334 160.089 73.5334 161.585C73.5334 163.096 73.0803 163.925 72.2483 163.925ZM75.51 165.839L76.1233 163.616H75.3772L75.0061 165.839H75.51ZM79.0374 164.538C80.303 164.538 81.0295 163.468 81.0295 161.596C81.0295 159.729 80.2913 158.635 79.0374 158.635C77.7756 158.635 77.0374 159.725 77.0374 161.585C77.0374 163.46 77.7678 164.538 79.0374 164.538ZM79.0374 163.925C78.2053 163.925 77.7444 163.093 77.7444 161.585C77.7444 160.096 78.2131 159.253 79.0374 159.253C79.8616 159.253 80.3225 160.089 80.3225 161.585C80.3225 163.096 79.8694 163.925 79.0374 163.925ZM84.0764 164.538C85.342 164.538 86.0686 163.468 86.0686 161.596C86.0686 159.729 85.3303 158.635 84.0764 158.635C82.8147 158.635 82.0764 159.725 82.0764 161.585C82.0764 163.46 82.8069 164.538 84.0764 164.538ZM84.0764 163.925C83.2444 163.925 82.7834 163.093 82.7834 161.585C82.7834 160.096 83.2522 159.253 84.0764 159.253C84.9006 159.253 85.3616 160.089 85.3616 161.585C85.3616 163.096 84.9084 163.925 84.0764 163.925Z" fill="white"/>
<g filter="url(#filter1_dd_0_476)">
<rect x="91.592" y="154.405" width="14" height="14" rx="7" fill="url(#paint2_linear_0_476)"/>
<rect x="92.592" y="155.405" width="12" height="12" rx="6" stroke="white" stroke-width="2"/>
</g>
<path d="M194.389 210.568V210.041C195.49 209.951 196.131 209.365 196.131 208.439C196.131 207.658 195.689 207.181 194.725 206.923L194.389 206.841V204.931C194.963 205.001 195.35 205.369 195.365 205.857H196.029C196.002 205.009 195.357 204.408 194.389 204.326V203.783H193.865V204.33C192.869 204.427 192.252 205.013 192.252 205.865C192.252 206.583 192.713 207.099 193.553 207.322L193.865 207.408V209.439C193.225 209.361 192.826 209.013 192.783 208.49H192.115C192.119 209.353 192.807 209.966 193.865 210.044V210.568H194.389ZM195.455 208.494C195.455 209.068 195.068 209.416 194.389 209.451V207.513C195.123 207.669 195.455 207.974 195.455 208.494ZM192.924 205.826C192.924 205.337 193.318 204.962 193.865 204.931V206.728C193.248 206.599 192.924 206.287 192.924 205.826ZM198.693 210.033H199.396V204.396H198.697L197.197 205.474V206.216L198.631 205.177H198.693V210.033ZM201.314 211.466L201.928 209.244H201.182L200.811 211.466H201.314ZM204.842 210.166C206.107 210.166 206.834 209.095 206.834 207.224C206.834 205.357 206.096 204.263 204.842 204.263C203.58 204.263 202.842 205.353 202.842 207.212C202.842 209.087 203.572 210.166 204.842 210.166ZM204.842 209.552C204.01 209.552 203.549 208.72 203.549 207.212C203.549 205.724 204.018 204.88 204.842 204.88C205.666 204.88 206.127 205.716 206.127 207.212C206.127 208.724 205.674 209.552 204.842 209.552ZM209.881 210.166C211.146 210.166 211.873 209.095 211.873 207.224C211.873 205.357 211.135 204.263 209.881 204.263C208.619 204.263 207.881 205.353 207.881 207.212C207.881 209.087 208.611 210.166 209.881 210.166ZM209.881 209.552C209.049 209.552 208.588 208.72 208.588 207.212C208.588 205.724 209.057 204.88 209.881 204.88C210.705 204.88 211.166 205.716 211.166 207.212C211.166 208.724 210.713 209.552 209.881 209.552ZM214.826 210.162C216.205 210.162 216.994 209.052 216.994 207.115C216.994 206.494 216.904 205.974 216.721 205.544C216.369 204.712 215.717 204.263 214.873 204.263C213.717 204.263 212.896 205.072 212.896 206.205C212.896 207.298 213.674 208.091 214.748 208.091C215.42 208.091 215.971 207.771 216.248 207.224H216.264H216.279H216.311C216.271 208.724 215.752 209.537 214.834 209.537C214.279 209.537 213.854 209.216 213.701 208.689H212.979C213.158 209.595 213.869 210.162 214.826 210.162ZM214.873 207.482C214.127 207.482 213.607 206.951 213.607 206.181C213.607 205.443 214.158 204.88 214.881 204.88C215.604 204.88 216.154 205.451 216.154 206.205C216.154 206.951 215.619 207.482 214.873 207.482ZM218.244 211.466L218.857 209.244H218.111L217.74 211.466H218.244ZM221.771 210.166C223.037 210.166 223.764 209.095 223.764 207.224C223.764 205.357 223.025 204.263 221.771 204.263C220.51 204.263 219.771 205.353 219.771 207.212C219.771 209.087 220.502 210.166 221.771 210.166ZM221.771 209.552C220.939 209.552 220.479 208.72 220.479 207.212C220.479 205.724 220.947 204.88 221.771 204.88C222.596 204.88 223.057 205.716 223.057 207.212C223.057 208.724 222.604 209.552 221.771 209.552ZM226.811 210.166C228.076 210.166 228.803 209.095 228.803 207.224C228.803 205.357 228.064 204.263 226.811 204.263C225.549 204.263 224.811 205.353 224.811 207.212C224.811 209.087 225.541 210.166 226.811 210.166ZM226.811 209.552C225.979 209.552 225.518 208.72 225.518 207.212C225.518 205.724 225.986 204.88 226.811 204.88C227.635 204.88 228.096 205.716 228.096 207.212C228.096 208.724 227.643 209.552 226.811 209.552Z" fill="white"/>
<g filter="url(#filter2_dd_0_476)">
<rect x="234.326" y="200.033" width="14" height="14" rx="7" fill="url(#paint3_linear_0_476)"/>
<rect x="235.326" y="201.033" width="12" height="12" rx="6" stroke="white" stroke-width="2"/>
</g>
<rect x="134" y="67.2283" width="8" height="8" rx="4" fill="url(#paint4_linear_0_476)"/>
<path d="M148.98 66.8283H150.12L148.824 74.2083H152.676L152.496 75.2283H147.504L148.98 66.8283ZM156.074 75.3723C155.546 75.3723 155.078 75.2603 154.67 75.0363C154.27 74.8043 153.954 74.4763 153.722 74.0523C153.498 73.6203 153.386 73.1123 153.386 72.5283C153.386 71.8643 153.522 71.2523 153.794 70.6923C154.074 70.1323 154.466 69.6843 154.97 69.3483C155.482 69.0123 156.078 68.8443 156.758 68.8443C157.222 68.8443 157.614 68.9323 157.934 69.1083C158.262 69.2843 158.514 69.5123 158.69 69.7923C158.866 70.0723 158.954 70.3723 158.954 70.6923C158.954 71.1323 158.85 71.4963 158.642 71.7843C158.434 72.0723 158.166 72.2963 157.838 72.4563C157.51 72.6083 157.154 72.7163 156.77 72.7803C156.394 72.8443 156.034 72.8763 155.69 72.8763C155.474 72.8763 155.258 72.8683 155.042 72.8523C154.834 72.8283 154.65 72.8043 154.49 72.7803C154.554 73.3083 154.742 73.7123 155.054 73.9923C155.366 74.2723 155.766 74.4123 156.254 74.4123C156.654 74.4123 157.01 74.3603 157.322 74.2563C157.634 74.1523 157.898 74.0483 158.114 73.9443L158.21 74.9043C157.97 75.0163 157.666 75.1243 157.298 75.2283C156.93 75.3243 156.522 75.3723 156.074 75.3723ZM156.674 69.7563C156.298 69.7563 155.958 69.8523 155.654 70.0443C155.35 70.2283 155.098 70.4843 154.898 70.8123C154.706 71.1323 154.578 71.5003 154.514 71.9163C154.698 71.9483 154.882 71.9763 155.066 72.0003C155.258 72.0163 155.466 72.0243 155.69 72.0243C156.362 72.0243 156.894 71.9323 157.286 71.7483C157.678 71.5563 157.874 71.2323 157.874 70.7763C157.874 70.4963 157.762 70.2563 157.538 70.0563C157.322 69.8563 157.034 69.7563 156.674 69.7563ZM163.556 68.8443C164.028 68.8443 164.444 68.8923 164.804 68.9883C165.164 69.0843 165.46 69.1803 165.692 69.2763L164.648 75.3003C164.552 75.8523 164.404 76.3043 164.204 76.6563C164.012 77.0083 163.784 77.2803 163.52 77.4723C163.264 77.6723 162.992 77.8123 162.704 77.8923C162.416 77.9723 162.132 78.0123 161.852 78.0123C161.308 78.0123 160.844 77.9003 160.46 77.6763C160.084 77.4523 159.776 77.1923 159.536 76.8963L160.376 76.2723C160.768 76.8083 161.284 77.0763 161.924 77.0763C162.324 77.0763 162.676 76.9283 162.98 76.6323C163.284 76.3363 163.5 75.8323 163.628 75.1203L163.832 73.9443C163.608 74.3043 163.328 74.6083 162.992 74.8563C162.664 75.1043 162.292 75.2283 161.876 75.2283C161.492 75.2283 161.124 75.1323 160.772 74.9403C160.428 74.7483 160.144 74.4683 159.92 74.1003C159.704 73.7323 159.596 73.2803 159.596 72.7443C159.596 71.9683 159.768 71.2883 160.112 70.7043C160.456 70.1203 160.928 69.6643 161.528 69.3363C162.128 69.0083 162.804 68.8443 163.556 68.8443ZM160.7 72.6243C160.7 72.9843 160.768 73.2883 160.904 73.5363C161.048 73.7763 161.232 73.9603 161.456 74.0883C161.68 74.2083 161.916 74.2683 162.164 74.2683C162.468 74.2683 162.756 74.1603 163.028 73.9443C163.3 73.7283 163.536 73.4243 163.736 73.0323C163.944 72.6403 164.096 72.1803 164.192 71.6523L164.504 69.9123C164.352 69.8643 164.192 69.8283 164.024 69.8043C163.856 69.7723 163.66 69.7563 163.436 69.7563C162.9 69.7563 162.424 69.8843 162.008 70.1403C161.6 70.3883 161.28 70.7283 161.048 71.1603C160.816 71.5923 160.7 72.0803 160.7 72.6243ZM169.21 75.3723C168.682 75.3723 168.214 75.2603 167.806 75.0363C167.406 74.8043 167.09 74.4763 166.858 74.0523C166.634 73.6203 166.522 73.1123 166.522 72.5283C166.522 71.8643 166.658 71.2523 166.93 70.6923C167.21 70.1323 167.602 69.6843 168.106 69.3483C168.618 69.0123 169.214 68.8443 169.894 68.8443C170.358 68.8443 170.75 68.9323 171.07 69.1083C171.398 69.2843 171.65 69.5123 171.826 69.7923C172.002 70.0723 172.09 70.3723 172.09 70.6923C172.09 71.1323 171.986 71.4963 171.778 71.7843C171.57 72.0723 171.302 72.2963 170.974 72.4563C170.646 72.6083 170.29 72.7163 169.906 72.7803C169.53 72.8443 169.17 72.8763 168.826 72.8763C168.61 72.8763 168.394 72.8683 168.178 72.8523C167.97 72.8283 167.786 72.8043 167.626 72.7803C167.69 73.3083 167.878 73.7123 168.19 73.9923C168.502 74.2723 168.902 74.4123 169.39 74.4123C169.79 74.4123 170.146 74.3603 170.458 74.2563C170.77 74.1523 171.034 74.0483 171.25 73.9443L171.346 74.9043C171.106 75.0163 170.802 75.1243 170.434 75.2283C170.066 75.3243 169.658 75.3723 169.21 75.3723ZM169.81 69.7563C169.434 69.7563 169.094 69.8523 168.79 70.0443C168.486 70.2283 168.234 70.4843 168.034 70.8123C167.842 71.1323 167.714 71.5003 167.65 71.9163C167.834 71.9483 168.018 71.9763 168.202 72.0003C168.394 72.0163 168.602 72.0243 168.826 72.0243C169.498 72.0243 170.03 71.9323 170.422 71.7483C170.814 71.5563 171.01 71.2323 171.01 70.7763C171.01 70.4963 170.898 70.2563 170.674 70.0563C170.458 69.8563 170.17 69.7563 169.81 69.7563ZM176.657 69.7923C176.377 69.7923 176.073 69.8963 175.745 70.1043C175.417 70.3123 175.113 70.6363 174.833 71.0763C174.561 71.5083 174.365 72.0643 174.245 72.7443L173.813 75.2283H172.733L173.825 68.9883H174.869L174.605 70.4283C174.853 69.9483 175.185 69.5643 175.601 69.2763C176.025 68.9883 176.469 68.8443 176.933 68.8443C177.477 68.8443 177.913 69.0123 178.241 69.3483C178.569 69.6763 178.733 70.0803 178.733 70.5603C178.733 70.7603 178.709 71.0123 178.661 71.3163L177.977 75.2283H176.897L177.557 71.4963C177.597 71.3043 177.621 71.1643 177.629 71.0763C177.637 70.9803 177.641 70.8923 177.641 70.8123C177.641 70.5003 177.549 70.2523 177.365 70.0683C177.189 69.8843 176.953 69.7923 176.657 69.7923ZM185.584 75.2883C185.152 75.2883 184.82 75.1843 184.588 74.9763C184.364 74.7603 184.252 74.4243 184.252 73.9683C184.02 74.3523 183.728 74.6843 183.376 74.9643C183.024 75.2363 182.616 75.3723 182.152 75.3723C181.752 75.3723 181.376 75.2683 181.024 75.0603C180.672 74.8443 180.388 74.5443 180.172 74.1603C179.964 73.7683 179.86 73.3043 179.86 72.7683C179.86 72.1523 179.952 71.6043 180.136 71.1243C180.32 70.6363 180.564 70.2243 180.868 69.8883C181.18 69.5523 181.52 69.2963 181.888 69.1203C182.264 68.9363 182.644 68.8443 183.028 68.8443C183.452 68.8443 183.816 68.9483 184.12 69.1563C184.432 69.3643 184.672 69.6203 184.84 69.9243L185.476 66.3483H186.556L185.284 73.5363C185.276 73.5763 185.268 73.6243 185.26 73.6803C185.26 73.7283 185.26 73.7803 185.26 73.8363C185.26 74.0603 185.324 74.2203 185.452 74.3163C185.58 74.4043 185.748 74.4483 185.956 74.4483L185.584 75.2883ZM182.44 74.4123C182.744 74.4123 183.032 74.3163 183.304 74.1243C183.584 73.9323 183.824 73.6643 184.024 73.3203C184.232 72.9683 184.376 72.5563 184.456 72.0843L184.672 70.8483C184.512 70.5123 184.296 70.2523 184.024 70.0683C183.752 69.8763 183.452 69.7803 183.124 69.7803C182.756 69.7803 182.404 69.8963 182.068 70.1283C181.74 70.3523 181.472 70.6763 181.264 71.1003C181.064 71.5163 180.964 72.0203 180.964 72.6123C180.964 73.0043 181.032 73.3363 181.168 73.6083C181.312 73.8723 181.496 74.0723 181.72 74.2083C181.952 74.3443 182.192 74.4123 182.44 74.4123ZM196.71 68.7123C196.71 69.1283 196.61 69.5043 196.41 69.8403C196.218 70.1683 195.962 70.4683 195.642 70.7403C195.322 71.0123 194.978 71.2763 194.61 71.5323C194.25 71.7803 193.898 72.0403 193.554 72.3123C193.218 72.5763 192.926 72.8643 192.678 73.1763C192.43 73.4883 192.266 73.8443 192.186 74.2443H196.002L195.834 75.2283H191.01C191.002 75.1643 190.994 75.0923 190.986 75.0123C190.978 74.9323 190.974 74.8563 190.974 74.7843C190.974 74.2243 191.082 73.7323 191.298 73.3083C191.522 72.8763 191.806 72.4923 192.15 72.1563C192.502 71.8203 192.87 71.5123 193.254 71.2323C193.646 70.9523 194.014 70.6883 194.358 70.4403C194.71 70.1843 194.994 69.9243 195.21 69.6603C195.434 69.3963 195.546 69.1083 195.546 68.7963C195.546 68.4443 195.426 68.1643 195.186 67.9563C194.946 67.7483 194.65 67.6443 194.298 67.6443C193.954 67.6443 193.642 67.7083 193.362 67.8363C193.09 67.9643 192.818 68.1443 192.546 68.3763L192.042 67.5603C192.37 67.2963 192.726 67.0843 193.11 66.9243C193.494 66.7643 193.934 66.6843 194.43 66.6843C194.886 66.6843 195.282 66.7723 195.618 66.9483C195.962 67.1243 196.23 67.3643 196.422 67.6683C196.614 67.9723 196.71 68.3203 196.71 68.7123Z" fill="white"/>
<rect x="49.0001" y="67.2283" width="8" height="8" rx="4" fill="url(#paint5_linear_0_476)"/>
<path d="M63.9801 66.8283H65.1201L63.8241 74.2083H67.6761L67.4961 75.2283H62.5041L63.9801 66.8283ZM71.0735 75.3723C70.5455 75.3723 70.0775 75.2603 69.6695 75.0363C69.2695 74.8043 68.9535 74.4763 68.7215 74.0523C68.4975 73.6203 68.3855 73.1123 68.3855 72.5283C68.3855 71.8643 68.5215 71.2523 68.7935 70.6923C69.0735 70.1323 69.4655 69.6843 69.9695 69.3483C70.4815 69.0123 71.0775 68.8443 71.7575 68.8443C72.2215 68.8443 72.6135 68.9323 72.9335 69.1083C73.2615 69.2843 73.5135 69.5123 73.6895 69.7923C73.8655 70.0723 73.9535 70.3723 73.9535 70.6923C73.9535 71.1323 73.8495 71.4963 73.6415 71.7843C73.4335 72.0723 73.1655 72.2963 72.8375 72.4563C72.5095 72.6083 72.1535 72.7163 71.7695 72.7803C71.3935 72.8443 71.0335 72.8763 70.6895 72.8763C70.4735 72.8763 70.2575 72.8683 70.0415 72.8523C69.8335 72.8283 69.6495 72.8043 69.4895 72.7803C69.5535 73.3083 69.7415 73.7123 70.0535 73.9923C70.3655 74.2723 70.7655 74.4123 71.2535 74.4123C71.6535 74.4123 72.0095 74.3603 72.3215 74.2563C72.6335 74.1523 72.8975 74.0483 73.1135 73.9443L73.2095 74.9043C72.9695 75.0163 72.6655 75.1243 72.2975 75.2283C71.9295 75.3243 71.5215 75.3723 71.0735 75.3723ZM71.6735 69.7563C71.2975 69.7563 70.9575 69.8523 70.6535 70.0443C70.3495 70.2283 70.0975 70.4843 69.8975 70.8123C69.7055 71.1323 69.5775 71.5003 69.5135 71.9163C69.6975 71.9483 69.8815 71.9763 70.0655 72.0003C70.2575 72.0163 70.4655 72.0243 70.6895 72.0243C71.3615 72.0243 71.8935 71.9323 72.2855 71.7483C72.6775 71.5563 72.8735 71.2323 72.8735 70.7763C72.8735 70.4963 72.7615 70.2563 72.5375 70.0563C72.3215 69.8563 72.0335 69.7563 71.6735 69.7563ZM78.5565 68.8443C79.0285 68.8443 79.4445 68.8923 79.8045 68.9883C80.1645 69.0843 80.4605 69.1803 80.6925 69.2763L79.6485 75.3003C79.5525 75.8523 79.4045 76.3043 79.2045 76.6563C79.0125 77.0083 78.7845 77.2803 78.5205 77.4723C78.2645 77.6723 77.9925 77.8123 77.7045 77.8923C77.4165 77.9723 77.1325 78.0123 76.8525 78.0123C76.3085 78.0123 75.8445 77.9003 75.4605 77.6763C75.0845 77.4523 74.7765 77.1923 74.5365 76.8963L75.3765 76.2723C75.7685 76.8083 76.2845 77.0763 76.9245 77.0763C77.3245 77.0763 77.6765 76.9283 77.9805 76.6323C78.2845 76.3363 78.5005 75.8323 78.6285 75.1203L78.8325 73.9443C78.6085 74.3043 78.3285 74.6083 77.9925 74.8563C77.6645 75.1043 77.2925 75.2283 76.8765 75.2283C76.4925 75.2283 76.1245 75.1323 75.7725 74.9403C75.4285 74.7483 75.1445 74.4683 74.9205 74.1003C74.7045 73.7323 74.5965 73.2803 74.5965 72.7443C74.5965 71.9683 74.7685 71.2883 75.1125 70.7043C75.4565 70.1203 75.9285 69.6643 76.5285 69.3363C77.1285 69.0083 77.8045 68.8443 78.5565 68.8443ZM75.7005 72.6243C75.7005 72.9843 75.7685 73.2883 75.9045 73.5363C76.0485 73.7763 76.2325 73.9603 76.4565 74.0883C76.6805 74.2083 76.9165 74.2683 77.1645 74.2683C77.4685 74.2683 77.7565 74.1603 78.0285 73.9443C78.3005 73.7283 78.5365 73.4243 78.7365 73.0323C78.9445 72.6403 79.0965 72.1803 79.1925 71.6523L79.5045 69.9123C79.3525 69.8643 79.1925 69.8283 79.0245 69.8043C78.8565 69.7723 78.6605 69.7563 78.4365 69.7563C77.9005 69.7563 77.4245 69.8843 77.0085 70.1403C76.6005 70.3883 76.2805 70.7283 76.0485 71.1603C75.8165 71.5923 75.7005 72.0803 75.7005 72.6243ZM84.2102 75.3723C83.6822 75.3723 83.2142 75.2603 82.8062 75.0363C82.4062 74.8043 82.0902 74.4763 81.8582 74.0523C81.6342 73.6203 81.5222 73.1123 81.5222 72.5283C81.5222 71.8643 81.6582 71.2523 81.9302 70.6923C82.2102 70.1323 82.6022 69.6843 83.1062 69.3483C83.6182 69.0123 84.2142 68.8443 84.8942 68.8443C85.3582 68.8443 85.7502 68.9323 86.0702 69.1083C86.3982 69.2843 86.6502 69.5123 86.8262 69.7923C87.0022 70.0723 87.0902 70.3723 87.0902 70.6923C87.0902 71.1323 86.9862 71.4963 86.7782 71.7843C86.5702 72.0723 86.3022 72.2963 85.9742 72.4563C85.6462 72.6083 85.2902 72.7163 84.9062 72.7803C84.5302 72.8443 84.1702 72.8763 83.8262 72.8763C83.6102 72.8763 83.3942 72.8683 83.1782 72.8523C82.9702 72.8283 82.7862 72.8043 82.6262 72.7803C82.6902 73.3083 82.8782 73.7123 83.1902 73.9923C83.5022 74.2723 83.9022 74.4123 84.3902 74.4123C84.7902 74.4123 85.1462 74.3603 85.4582 74.2563C85.7702 74.1523 86.0342 74.0483 86.2502 73.9443L86.3462 74.9043C86.1062 75.0163 85.8022 75.1243 85.4342 75.2283C85.0662 75.3243 84.6582 75.3723 84.2102 75.3723ZM84.8102 69.7563C84.4342 69.7563 84.0942 69.8523 83.7902 70.0443C83.4862 70.2283 83.2342 70.4843 83.0342 70.8123C82.8422 71.1323 82.7142 71.5003 82.6502 71.9163C82.8342 71.9483 83.0182 71.9763 83.2022 72.0003C83.3942 72.0163 83.6022 72.0243 83.8262 72.0243C84.4982 72.0243 85.0302 71.9323 85.4222 71.7483C85.8142 71.5563 86.0102 71.2323 86.0102 70.7763C86.0102 70.4963 85.8982 70.2563 85.6742 70.0563C85.4582 69.8563 85.1702 69.7563 84.8102 69.7563ZM91.6572 69.7923C91.3772 69.7923 91.0732 69.8963 90.7452 70.1043C90.4172 70.3123 90.1132 70.6363 89.8332 71.0763C89.5612 71.5083 89.3652 72.0643 89.2452 72.7443L88.8132 75.2283H87.7332L88.8252 68.9883H89.8692L89.6052 70.4283C89.8532 69.9483 90.1852 69.5643 90.6012 69.2763C91.0252 68.9883 91.4692 68.8443 91.9332 68.8443C92.4772 68.8443 92.9132 69.0123 93.2412 69.3483C93.5692 69.6763 93.7332 70.0803 93.7332 70.5603C93.7332 70.7603 93.7092 71.0123 93.6612 71.3163L92.9772 75.2283H91.8972L92.5572 71.4963C92.5972 71.3043 92.6212 71.1643 92.6292 71.0763C92.6372 70.9803 92.6412 70.8923 92.6412 70.8123C92.6412 70.5003 92.5492 70.2523 92.3652 70.0683C92.1892 69.8843 91.9532 69.7923 91.6572 69.7923ZM100.584 75.2883C100.152 75.2883 99.8196 75.1843 99.5876 74.9763C99.3636 74.7603 99.2516 74.4243 99.2516 73.9683C99.0196 74.3523 98.7276 74.6843 98.3756 74.9643C98.0236 75.2363 97.6156 75.3723 97.1516 75.3723C96.7516 75.3723 96.3756 75.2683 96.0236 75.0603C95.6716 74.8443 95.3876 74.5443 95.1716 74.1603C94.9636 73.7683 94.8596 73.3043 94.8596 72.7683C94.8596 72.1523 94.9516 71.6043 95.1356 71.1243C95.3196 70.6363 95.5636 70.2243 95.8676 69.8883C96.1796 69.5523 96.5196 69.2963 96.8876 69.1203C97.2636 68.9363 97.6436 68.8443 98.0276 68.8443C98.4516 68.8443 98.8156 68.9483 99.1196 69.1563C99.4316 69.3643 99.6716 69.6203 99.8396 69.9243L100.476 66.3483H101.556L100.284 73.5363C100.276 73.5763 100.268 73.6243 100.26 73.6803C100.26 73.7283 100.26 73.7803 100.26 73.8363C100.26 74.0603 100.324 74.2203 100.452 74.3163C100.58 74.4043 100.748 74.4483 100.956 74.4483L100.584 75.2883ZM97.4396 74.4123C97.7436 74.4123 98.0316 74.3163 98.3036 74.1243C98.5836 73.9323 98.8236 73.6643 99.0236 73.3203C99.2316 72.9683 99.3756 72.5563 99.4556 72.0843L99.6716 70.8483C99.5116 70.5123 99.2956 70.2523 99.0236 70.0683C98.7516 69.8763 98.4516 69.7803 98.1236 69.7803C97.7556 69.7803 97.4036 69.8963 97.0676 70.1283C96.7396 70.3523 96.4716 70.6763 96.2636 71.1003C96.0636 71.5163 95.9636 72.0203 95.9636 72.6123C95.9636 73.0043 96.0316 73.3363 96.1676 73.6083C96.3116 73.8723 96.4956 74.0723 96.7196 74.2083C96.9516 74.3443 97.1916 74.4123 97.4396 74.4123ZM108.29 74.2683L109.358 68.2323L107.57 69.4803L107.078 68.6163L109.886 66.8283H110.678L109.37 74.2683H110.798L110.63 75.2283H106.406L106.574 74.2683H108.29Z" fill="white"/>
<path d="M54.713 39.2637C57.152 39.2637 58.9391 37.8062 59.1881 35.6455H57.3278C57.0714 36.832 56.0533 37.5791 54.713 37.5791C52.9113 37.5791 51.7906 36.0996 51.7906 33.7119C51.7906 31.3315 52.9113 29.8521 54.7057 29.8521C56.0387 29.8521 57.0568 30.6724 57.3204 31.9395H59.1808C58.9611 29.7349 57.108 28.1675 54.7057 28.1675C51.7101 28.1675 49.8571 30.2842 49.8571 33.7192C49.8571 37.1396 51.7174 39.2637 54.713 39.2637ZM61.173 39H62.9894V34.3491C62.9894 33.1992 63.6559 32.4229 64.8497 32.4229C65.9044 32.4229 66.4611 33.0454 66.4611 34.2612V39H68.2775V33.8291C68.2775 31.9248 67.2374 30.8408 65.5236 30.8408C64.3297 30.8408 63.4728 31.3828 63.0919 32.2837H62.9601V27.8892H61.173V39ZM73.17 37.7036C72.3644 37.7036 71.7858 37.3008 71.7858 36.627C71.7858 35.9751 72.2618 35.6089 73.2799 35.543L75.089 35.4258V36.063C75.089 36.9932 74.2687 37.7036 73.17 37.7036ZM72.6354 39.1318C73.6827 39.1318 74.5616 38.6777 75.0084 37.9014H75.1329V39H76.8834V33.5288C76.8834 31.8296 75.7262 30.8262 73.6681 30.8262C71.7638 30.8262 70.4381 31.7271 70.2916 33.1406H72.0055C72.174 32.5986 72.7452 32.3057 73.5802 32.3057C74.5616 32.3057 75.089 32.7451 75.089 33.5288V34.2026L73.0236 34.3271C71.0753 34.4443 69.984 35.2793 69.984 36.7295C69.984 38.1943 71.09 39.1318 72.6354 39.1318ZM79.0734 39H80.8898V34.3711C80.8898 33.2505 81.7101 32.5181 82.8893 32.5181C83.1969 32.5181 83.6803 32.5693 83.8195 32.6206V30.936C83.651 30.8848 83.3287 30.8555 83.0651 30.8555C82.0323 30.8555 81.1681 31.4414 80.9484 32.2324H80.8239V30.9873H79.0734V39ZM86.2584 29.0244V31.0386H84.9913V32.4888H86.2584V36.8613C86.2584 38.4141 86.9908 39.0366 88.8292 39.0366C89.1808 39.0366 89.5177 39 89.7814 38.9487V37.5278C89.5616 37.5498 89.4225 37.5645 89.1661 37.5645C88.4044 37.5645 88.0675 37.2129 88.0675 36.4219V32.4888H89.7814V31.0386H88.0675V29.0244H86.2584ZM104.701 39V28.4312H102.818V32.8037H97.6769V28.4312H95.7872V39H97.6769V34.437H102.818V39H104.701ZM110.487 32.269C111.578 32.269 112.296 33.0308 112.333 34.2173H108.561C108.641 33.0454 109.403 32.269 110.487 32.269ZM112.347 36.7954C112.084 37.3887 111.461 37.7183 110.56 37.7183C109.366 37.7183 108.597 36.8833 108.553 35.5503V35.4551H114.149V34.8691C114.149 32.3423 112.779 30.8262 110.494 30.8262C108.172 30.8262 106.73 32.4448 106.73 35.0229C106.73 37.6011 108.151 39.1611 110.509 39.1611C112.399 39.1611 113.724 38.2529 114.068 36.7954H112.347ZM118.712 37.7036C117.906 37.7036 117.328 37.3008 117.328 36.627C117.328 35.9751 117.804 35.6089 118.822 35.543L120.631 35.4258V36.063C120.631 36.9932 119.811 37.7036 118.712 37.7036ZM118.177 39.1318C119.225 39.1318 120.104 38.6777 120.55 37.9014H120.675V39H122.425V33.5288C122.425 31.8296 121.268 30.8262 119.21 30.8262C117.306 30.8262 115.98 31.7271 115.834 33.1406H117.547C117.716 32.5986 118.287 32.3057 119.122 32.3057C120.104 32.3057 120.631 32.7451 120.631 33.5288V34.2026L118.566 34.3271C116.617 34.4443 115.526 35.2793 115.526 36.7295C115.526 38.1943 116.632 39.1318 118.177 39.1318ZM127.516 39.1318C128.629 39.1318 129.552 38.6118 130.006 37.7329H130.13V39H131.888V27.8892H130.072V32.2617H129.947C129.523 31.3828 128.614 30.8555 127.516 30.8555C125.494 30.8555 124.22 32.4521 124.22 34.9863C124.22 37.5352 125.487 39.1318 127.516 39.1318ZM128.08 32.4009C129.325 32.4009 130.094 33.397 130.094 34.9937C130.094 36.605 129.332 37.5864 128.08 37.5864C126.835 37.5864 126.08 36.6123 126.08 34.9937C126.08 33.3823 126.842 32.4009 128.08 32.4009ZM137.543 32.269C138.634 32.269 139.352 33.0308 139.388 34.2173H135.616C135.697 33.0454 136.459 32.269 137.543 32.269ZM139.403 36.7954C139.139 37.3887 138.517 37.7183 137.616 37.7183C136.422 37.7183 135.653 36.8833 135.609 35.5503V35.4551H141.205V34.8691C141.205 32.3423 139.835 30.8262 137.55 30.8262C135.228 30.8262 133.785 32.4448 133.785 35.0229C133.785 37.6011 135.206 39.1611 137.565 39.1611C139.454 39.1611 140.78 38.2529 141.124 36.7954H139.403ZM143.028 39H144.845V34.3711C144.845 33.2505 145.665 32.5181 146.844 32.5181C147.152 32.5181 147.635 32.5693 147.775 32.6206V30.936C147.606 30.8848 147.284 30.8555 147.02 30.8555C145.987 30.8555 145.123 31.4414 144.903 32.2324H144.779V30.9873H143.028V39Z" fill="white"/>
<rect x="32.75" y="8.75" width="325.5" height="310.5" stroke="white" stroke-width="0.5"/>
</g>
<defs>
<filter id="filter0_dd_0_476" x="0.5" y="0.5" width="390" height="375" filterUnits="userSpaceOnUse" color-interpolation-filters="sRGB">
<feFlood flood-opacity="0" result="BackgroundImageFix"/>
<feColorMatrix in="SourceAlpha" type="matrix" values="0 0 0 0 0 0 0 0 0 0 0 0 0 0 0 0 0 0 127 0" result="hardAlpha"/>
<feOffset dy="24"/>
<feGaussianBlur stdDeviation="16"/>
<feColorMatrix type="matrix" values="0 0 0 0 0.196487 0 0 0 0 0.196487 0 0 0 0 0.279476 0 0 0 0.08 0"/>
<feBlend mode="multiply" in2="BackgroundImageFix" result="effect1_dropShadow_0_476"/>
<feColorMatrix in="SourceAlpha" type="matrix" values="0 0 0 0 0 0 0 0 0 0 0 0 0 0 0 0 0 0 127 0" result="hardAlpha"/>
<feOffset dy="16"/>
<feGaussianBlur stdDeviation="8"/>
<feColorMatrix type="matrix" values="0 0 0 0 0.196487 0 0 0 0 0.196487 0 0 0 0 0.279476 0 0 0 0.08 0"/>
<feBlend mode="multiply" in2="effect1_dropShadow_0_476" result="effect2_dropShadow_0_476"/>
<feBlend mode="normal" in="SourceGraphic" in2="effect2_dropShadow_0_476" result="shape"/>
</filter>
<filter id="filter1_dd_0_476" x="87.592" y="152.405" width="22" height="22" filterUnits="userSpaceOnUse" color-interpolation-filters="sRGB">
<feFlood flood-opacity="0" result="BackgroundImageFix"/>
<feColorMatrix in="SourceAlpha" type="matrix" values="0 0 0 0 0 0 0 0 0 0 0 0 0 0 0 0 0 0 127 0" result="hardAlpha"/>
<feOffset dy="2"/>
<feGaussianBlur stdDeviation="2"/>
<feColorMatrix type="matrix" values="0 0 0 0 0.196487 0 0 0 0 0.196487 0 0 0 0 0.279476 0 0 0 0.06 0"/>
<feBlend mode="multiply" in2="BackgroundImageFix" result="effect1_dropShadow_0_476"/>
<feColorMatrix in="SourceAlpha" type="matrix" values="0 0 0 0 0 0 0 0 0 0 0 0 0 0 0 0 0 0 127 0" result="hardAlpha"/>
<feOffset dy="2"/>
<feGaussianBlur stdDeviation="1"/>
<feColorMatrix type="matrix" values="0 0 0 0 0.196487 0 0 0 0 0.196487 0 0 0 0 0.279476 0 0 0 0.06 0"/>
<feBlend mode="multiply" in2="effect1_dropShadow_0_476" result="effect2_dropShadow_0_476"/>
<feBlend mode="normal" in="SourceGraphic" in2="effect2_dropShadow_0_476" result="shape"/>
</filter>
<filter id="filter2_dd_0_476" x="230.326" y="198.033" width="22" height="22" filterUnits="userSpaceOnUse" color-interpolation-filters="sRGB">
<feFlood flood-opacity="0" result="BackgroundImageFix"/>
<feColorMatrix in="SourceAlpha" type="matrix" values="0 0 0 0 0 0 0 0 0 0 0 0 0 0 0 0 0 0 127 0" result="hardAlpha"/>
<feOffset dy="2"/>
<feGaussianBlur stdDeviation="2"/>
<feColorMatrix type="matrix" values="0 0 0 0 0.196487 0 0 0 0 0.196487 0 0 0 0 0.279476 0 0 0 0.06 0"/>
<feBlend mode="multiply" in2="BackgroundImageFix" result="effect1_dropShadow_0_476"/>
<feColorMatrix in="SourceAlpha" type="matrix" values="0 0 0 0 0 0 0 0 0 0 0 0 0 0 0 0 0 0 127 0" result="hardAlpha"/>
<feOffset dy="2"/>
<feGaussianBlur stdDeviation="1"/>
<feColorMatrix type="matrix" values="0 0 0 0 0.196487 0 0 0 0 0.196487 0 0 0 0 0.279476 0 0 0 0.06 0"/>
<feBlend mode="multiply" in2="effect1_dropShadow_0_476" result="effect2_dropShadow_0_476"/>
<feBlend mode="normal" in="SourceGraphic" in2="effect2_dropShadow_0_476" result="shape"/>
</filter>
<linearGradient id="paint0_linear_0_476" x1="190.194" y1="142.051" x2="154.058" y2="288.393" gradientUnits="userSpaceOnUse">
<stop stop-color="#CDD2FD"/>
<stop offset="1" stop-color="#6979F8"/>
</linearGradient>
<linearGradient id="paint1_linear_0_476" x1="190.194" y1="35.647" x2="97.6242" y2="258.44" gradientUnits="userSpaceOnUse">
<stop stop-color="#CDD2FD"/>
<stop offset="1" stop-color="#6979F8"/>
</linearGradient>
<linearGradient id="paint2_linear_0_476" x1="98.592" y1="147.405" x2="84.592" y2="161.405" gradientUnits="userSpaceOnUse">
<stop stop-color="#A6D6FF"/>
<stop offset="1" stop-color="#0084F4"/>
</linearGradient>
<linearGradient id="paint3_linear_0_476" x1="241.098" y1="193.718" x2="227.555" y2="207.261" gradientUnits="userSpaceOnUse">
<stop stop-color="#CDD2FD"/>
<stop offset="1" stop-color="#6979F8"/>
</linearGradient>
<linearGradient id="paint4_linear_0_476" x1="138" y1="63.2283" x2="130" y2="71.2283" gradientUnits="userSpaceOnUse">
<stop stop-color="#A6D6FF"/>
<stop offset="1" stop-color="#0084F4"/>
</linearGradient>
<linearGradient id="paint5_linear_0_476" x1="52.8695" y1="63.6201" x2="45.1307" y2="71.3589" gradientUnits="userSpaceOnUse">
<stop stop-color="#CDD2FD"/>
<stop offset="1" stop-color="#6979F8"/>
</linearGradient>
</defs>
</svg>
